<svg width="24px" height="24px" viewBox="0 0 24 24" fill="#000000" xmlns="http://www.w3.org/2000/svg">
<path fill-rule="evenodd" clip-rule="evenodd" d="M8.66525 4.25338C8.2529 3.88598 7.62078 3.92242 7.25338 4.33477C6.88598 4.74712 6.92242 5.37924 7.33477 5.74664L14.3536 12.0003L7.33477 18.254C6.92242 18.6214 6.88598 19.2535 7.25338 19.6659C7.62078 20.0782 8.2529 20.1146 8.66525 19.7472L16.4965 12.7697C16.5342 12.7383 16.5701 12.7036 16.6038 12.6659C16.7738 12.4751 16.8573 12.2372 16.8572 12.0003C16.8573 11.7634 16.7738 11.5256 16.6038 11.3348C16.5701 11.297 16.5342 11.2624 16.4965 11.2309L8.66525 4.25338Z" fill="white"></path>
</svg>
