<svg xmlns="http://www.w3.org/2000/svg" width="88" height="88" viewBox="0 0 88 88">
  <g fill="none" fill-rule="evenodd">
    <path fill="#25CDCE" d="M0.0001,44 C0.0001,19.7 19.6991,0 44.0001,0 C68.3001,0 88.0001,19.7 88.0001,44 C88.0001,68.301 68.3001,88 44.0001,88 C19.6991,88 0.0001,68.301 0.0001,44"/>
    <g transform="translate(32 20)">
      <polygon fill="#FFF" points="12 0 24 12.005 12 24"/>
      <polygon fill="#FFF" points="12 24.015 24 36.008 12 48"/>
      <path fill="#014582" fill-rule="nonzero" d="M11.0081695,-0.000620219912 C11.0086977,-0.852227847 11.9933768,-1.29709979 12.6302825,-0.783551748 L12.7148526,-0.707530038 L24.7066833,11.2699489 C25.0674312,11.6302651 25.0954531,12.197571 24.7905566,12.5900416 L24.7073965,12.6842959 L13.398,24.002 L24.7064574,35.2894024 C25.0677056,35.649988 25.095531,36.2180166 24.7899072,36.6105587 L24.7065544,36.7048166 L12.6849532,48.7076587 C12.0819602,49.3097108 11.0706293,48.9270307 10.9843109,48.1130049 L10.978399,47.9993798 L10.991,26.41 L0.707396502,36.7039749 C0.347060301,37.0646065 -0.220159343,37.0925685 -0.61257552,36.7877044 L-0.706816942,36.7045544 C-1.0674486,36.3442182 -1.09541059,35.7769986 -0.790546494,35.3845824 L-0.707396502,35.290341 L10.57,24.003 L-0.706457411,12.7489336 C-1.06727212,12.3887807 -1.09552232,11.8215753 -0.790857652,11.4290043 L-0.707755556,11.3347206 C-0.347602644,10.9739059 0.219602719,10.9456557 0.612173751,11.2503204 L0.706457411,11.3334225 L10.994,21.603 L11.0081695,-0.000620219912 Z M12.991,26.421 L12.98,45.586 L22.584,35.997 L12.991,26.421 Z M13.006,2.411 L12.995,21.576 L22.585,11.978 L13.006,2.411 Z"/>
    </g>
  </g>
</svg>
