<svg width="24px" height="24px" viewBox="0 0 24 24" fill="#000000" xmlns="http://www.w3.org/2000/svg">
<path fill-rule="evenodd" clip-rule="evenodd" d="M19.8992 5.70711C20.2897 5.31658 20.2897 4.68342 19.8992 4.29289C19.5086 3.90237 18.8755 3.90237 18.485 4.29289L12.096 10.6818L5.70711 4.29289C5.31658 3.90237 4.68342 3.90237 4.29289 4.29289C3.90237 4.68342 3.90237 5.31658 4.29289 5.70711L10.6818 12.096L4.29289 18.485C3.90237 18.8755 3.90237 19.5086 4.29289 19.8992C4.68342 20.2897 5.31658 20.2897 5.70711 19.8992L12.096 13.5102L18.485 19.8992C18.8755 20.2897 19.5086 20.2897 19.8992 19.8992C20.2897 19.5086 20.2897 18.8755 19.8992 18.485L13.5102 12.096L19.8992 5.70711Z" fill="white"></path>
</svg>
