<?xml version="1.0" encoding="UTF-8"?>
<svg width="88px" height="88px" viewBox="0 0 88 88" version="1.1" xmlns="http://www.w3.org/2000/svg" xmlns:xlink="http://www.w3.org/1999/xlink">
    <!-- Generator: Sketch 63.1 (92452) - https://sketch.com -->
    <title>Coronapp_Icon_Pointer</title>
    <desc>Created with Sketch.</desc>
    <g id="Coronapp_Icon_Pointer" stroke="none" stroke-width="1" fill="none" fill-rule="evenodd">
        <g id="Group-12">
            <path d="M0.0001,44 C0.0001,19.7 19.6991,0 44.0001,0 C68.3001,0 88.0001,19.7 88.0001,44 C88.0001,68.301 68.3001,88 44.0001,88 C19.6991,88 0.0001,68.301 0.0001,44" id="Fill-1" fill="#25CDCE"></path>
            <path d="M25.0021,34.9799 C25.1411,24.6219 33.6101,16.2379 44.0001,16.2379 C54.3901,16.2379 62.8591,24.6219 62.9981,34.9799 L44.0001,68.8939 L25.0021,34.9799 Z" id="Fill-4" fill="#FFFFFF"></path>
            <path d="M43.9967,42.7377 C40.1367,42.7377 36.9967,39.5977 36.9967,35.7377 C36.9967,31.8777 40.1367,28.7377 43.9967,28.7377 C47.8567,28.7377 50.9967,31.8777 50.9967,35.7377 C50.9967,39.5977 47.8567,42.7377 43.9967,42.7377" id="Fill-10" fill="#F35A5D"></path>
            <path d="M44.0001,15.2382 L44.3445682,15.241107 C55.2306908,15.4249687 64.0001,24.3072625 64.0001,35.2382 L64.0001,35.2382 L44.0011,70.9392 L52.993,70.94 L52.993,72.94 L35,72.94 L35,70.94 L43.9991,70.9392 L24.0001,35.2382 L24.003007,34.8937012 C24.1868687,24.0066299 33.0691625,15.2382 44.0001,15.2382 L44.0001,15.2382 Z M44.0001,17.2382 C34.2451,17.2382 26.2771,25.0382 26.0071,34.7282 L26.0071,34.7282 L44.0001,66.8472 L61.9931,34.7282 C61.7221,25.0382 53.7551,17.2382 44.0001,17.2382 Z M43.9967,27.7377 C48.4147,27.7377 51.9967,31.3197 51.9967,35.7377 C51.9967,40.1557 48.4147,43.7377 43.9967,43.7377 C39.5787,43.7377 35.9967,40.1557 35.9967,35.7377 C35.9967,31.3197 39.5787,27.7377 43.9967,27.7377 Z M43.9967,29.7377 C40.6877,29.7377 37.9967,32.4297 37.9967,35.7377 C37.9967,39.0467 40.6877,41.7377 43.9967,41.7377 C47.3047,41.7377 49.9967,39.0467 49.9967,35.7377 C49.9967,32.4297 47.3047,29.7377 43.9967,29.7377 Z" id="Combined-Shape" fill="#004684"></path>
        </g>
    </g>
</svg>