<?xml version="1.0" encoding="UTF-8"?>
<svg width="88px" height="88px" viewBox="0 0 88 88" version="1.1" xmlns="http://www.w3.org/2000/svg" xmlns:xlink="http://www.w3.org/1999/xlink">
    <!-- Generator: Sketch 63.1 (92452) - https://sketch.com -->
    <title>Coronapp_Icon_Evaluar</title>
    <desc>Created with Sketch.</desc>
    <g id="Coronapp_Icon_Evaluar" stroke="none" stroke-width="1" fill="none" fill-rule="evenodd">
        <g id="Group-20">
            <path d="M-0.0002,44.0002 C-0.0002,19.6992 19.6998,0.0002 43.9998,0.0002 C68.3008,0.0002 87.9998,19.6992 87.9998,44.0002 C87.9998,68.3012 68.3008,88.0002 43.9998,88.0002 C19.6998,88.0002 -0.0002,68.3012 -0.0002,44.0002" id="Fill-1" fill="#25CDCE"></path>
            <path d="M41.9998,64.0002 L41.9998,69.9392 C41.9998,71.0442 42.8958,71.9392 43.9998,71.9392 C45.1048,71.9392 45.9998,71.0442 45.9998,69.9392 L45.9998,64.0002 L41.9998,64.0002 Z" id="Fill-4" fill="#FFFFFF"></path>
            <path d="M45.0003,69.9396 C45.0003,70.4916 44.5513,70.9396 44.0003,70.9396 C43.4483,70.9396 43.0003,70.4916 43.0003,69.9396 L43.0003,65.0006 L45.0003,65.0006 L45.0003,69.9396 Z M52.9873,23.2506 L52.9693,23.2506 C52.5863,18.6366 48.7103,15.0006 44.0003,15.0006 C39.2903,15.0006 35.4133,18.6366 35.0313,23.2506 L35.0003,23.2506 L35.0003,46.5106 C35.0003,48.4986 35.6713,50.4576 36.8893,52.0276 L40.3703,56.5146 C40.7763,57.0386 41.0003,57.6916 41.0003,58.3536 L41.0003,69.9396 C41.0003,71.5936 42.3463,72.9396 44.0003,72.9396 C45.6543,72.9396 47.0003,71.5936 47.0003,69.9396 L47.0003,58.3676 C47.0003,57.7066 47.2233,57.0536 47.6273,56.5306 L51.1163,52.0246 C52.3313,50.4556 53.0003,48.4996 53.0003,46.5146 L52.9873,23.2506 Z" id="Fill-6" fill="#004684"></path>
            <path d="M44.0003,44.0002 C42.8963,44.0002 42.0003,43.1042 42.0003,42.0002 L42.0003,24.0002 C42.0003,22.8962 42.8963,22.0002 44.0003,22.0002 C45.1043,22.0002 46.0003,22.8962 46.0003,24.0002 L46.0003,42.0002 C46.0003,43.1042 45.1043,44.0002 44.0003,44.0002" id="Fill-8" fill="#FFFFFF"></path>
            <path d="M44.0003,50.0002 C42.8963,50.0002 42.0003,49.1042 42.0003,48.0002 L42.0003,40.0002 C42.0003,38.8962 42.8963,38.0002 44.0003,38.0002 C45.1043,38.0002 46.0003,38.8962 46.0003,40.0002 L46.0003,48.0002 C46.0003,49.1042 45.1043,50.0002 44.0003,50.0002" id="Fill-10" fill="#F35A5D"></path>
            <polygon id="Fill-12" fill="#F35A5D" points="67.7396 38.4758 64.0006 31.9998 60.2606 38.4758"></polygon>
            <polygon id="Fill-14" fill="#F35A5D" points="27.7396 38.4758 24.0006 31.9998 20.2606 38.4758"></polygon>
            <path d="M61.993,37.4758 L64,33.9988 L66.007,37.4758 L61.993,37.4758 Z M68.605,37.9758 L64.867,31.4998 C64.688,31.1908 64.358,30.9998 64,30.9998 C63.643,30.9998 63.313,31.1908 63.135,31.4998 L59.395,37.9758 C59.216,38.2858 59.216,38.6658 59.395,38.9758 C59.573,39.2858 59.904,39.4758 60.261,39.4758 L63,39.4758 L63,51.9998 L65,51.9998 L65,39.4758 L67.74,39.4758 C68.097,39.4758 68.427,39.2858 68.605,38.9758 C68.784,38.6658 68.784,38.2858 68.605,37.9758 L68.605,37.9758 Z" id="Fill-16" fill="#004684"></path>
            <path d="M21.993,37.4758 L24,33.9988 L26.007,37.4758 L21.993,37.4758 Z M28.605,37.9758 L24.867,31.4998 C24.688,31.1908 24.358,30.9998 24,30.9998 C23.643,30.9998 23.313,31.1908 23.135,31.4998 L19.395,37.9758 C19.216,38.2858 19.216,38.6658 19.395,38.9758 C19.573,39.2858 19.904,39.4758 20.261,39.4758 L23,39.4758 L23,51.9998 L25,51.9998 L25,39.4758 L27.74,39.4758 C28.097,39.4758 28.427,39.2858 28.605,38.9758 C28.784,38.6658 28.784,38.2858 28.605,37.9758 L28.605,37.9758 Z" id="Fill-18" fill="#004684"></path>
        </g>
    </g>
</svg>