<?xml version="1.0" encoding="UTF-8"?>
<svg width="88px" height="88px" viewBox="0 0 88 88" version="1.1" xmlns="http://www.w3.org/2000/svg" xmlns:xlink="http://www.w3.org/1999/xlink">
    <!-- Generator: Sketch 63.1 (92452) - https://sketch.com -->
    <title>Coronapp_Icon_12Horas</title>
    <desc>Created with Sketch.</desc>
    <g id="Coronapp_Icon_12Horas" stroke="none" stroke-width="1" fill="none" fill-rule="evenodd">
        <g id="Group-44">
            <path d="M0.0002,44.0003 C0.0002,19.6993 19.6992,0.0003 44.0002,0.0003 C68.3002,0.0003 88.0002,19.6993 88.0002,44.0003 C88.0002,68.3003 68.3002,88.0003 44.0002,88.0003 C19.6992,88.0003 0.0002,68.3003 0.0002,44.0003" id="Fill-1" fill="#25CDCE"></path>
            <path d="M22.0002,44.0003 C22.0002,31.8503 31.8502,22.0003 44.0002,22.0003 C56.1502,22.0003 66.0002,31.8503 66.0002,44.0003 C66.0002,56.1503 56.1502,66.0003 44.0002,66.0003 C31.8502,66.0003 22.0002,56.1503 22.0002,44.0003" id="Fill-4" fill="#FFFFFF"></path>
            <path d="M51.5002,55.9905 C52.0522,55.9905 52.5002,56.4375 52.5002,56.9905 C52.5002,57.5425 52.0522,57.9905 51.5002,57.9905 C50.9472,57.9905 50.5002,57.5425 50.5002,56.9905 C50.5002,56.4375 50.9472,55.9905 51.5002,55.9905 Z M36.5002,55.9905 C37.0522,55.9905 37.5002,56.4375 37.5002,56.9905 C37.5002,57.5425 37.0522,57.9905 36.5002,57.9905 C35.9472,57.9905 35.5002,57.5425 35.5002,56.9905 C35.5002,56.4375 35.9472,55.9905 36.5002,55.9905 Z M56.9905,50.5003 C57.5425,50.5003 57.9905,50.9473 57.9905,51.5003 C57.9905,52.0523 57.5425,52.5003 56.9905,52.5003 C56.4385,52.5003 55.9905,52.0523 55.9905,51.5003 C55.9905,50.9473 56.4385,50.5003 56.9905,50.5003 Z M31.0095,50.5003 C31.5615,50.5003 32.0095,50.9473 32.0095,51.5003 C32.0095,52.0523 31.5615,52.5003 31.0095,52.5003 C30.4575,52.5003 30.0095,52.0523 30.0095,51.5003 C30.0095,50.9473 30.4575,50.5003 31.0095,50.5003 Z M29.0002,43.0003 C29.5522,43.0003 30.0002,43.4473 30.0002,44.0003 C30.0002,44.5523 29.5522,45.0003 29.0002,45.0003 C28.4472,45.0003 28.0002,44.5523 28.0002,44.0003 C28.0002,43.4473 28.4472,43.0003 29.0002,43.0003 Z M59.0002,43.0003 C59.5522,43.0003 60.0002,43.4473 60.0002,44.0003 C60.0002,44.5523 59.5522,45.0003 59.0002,45.0003 C58.4472,45.0003 58.0002,44.5523 58.0002,44.0003 C58.0002,43.4473 58.4472,43.0003 59.0002,43.0003 Z M31.0095,35.5003 C31.5615,35.5003 32.0095,35.9473 32.0095,36.5003 C32.0095,37.0523 31.5615,37.5003 31.0095,37.5003 C30.4575,37.5003 30.0095,37.0523 30.0095,36.5003 C30.0095,35.9473 30.4575,35.5003 31.0095,35.5003 Z M56.9905,35.5003 C57.5425,35.5003 57.9905,35.9473 57.9905,36.5003 C57.9905,37.0523 57.5425,37.5003 56.9905,37.5003 C56.4385,37.5003 55.9905,37.0523 55.9905,36.5003 C55.9905,35.9473 56.4385,35.5003 56.9905,35.5003 Z M36.5002,30.01 C37.0522,30.01 37.5002,30.457 37.5002,31.01 C37.5002,31.562 37.0522,32.01 36.5002,32.01 C35.9472,32.01 35.5002,31.562 35.5002,31.01 C35.5002,30.457 35.9472,30.01 36.5002,30.01 Z M51.5002,30.01 C52.0522,30.01 52.5002,30.457 52.5002,31.01 C52.5002,31.562 52.0522,32.01 51.5002,32.01 C50.9472,32.01 50.5002,31.562 50.5002,31.01 C50.5002,30.457 50.9472,30.01 51.5002,30.01 Z" id="Combined-Shape" fill="#F35A5D"></path>
            <path d="M44.0002,66.0003 C41.1762,66.0003 38.4802,65.4623 36.0002,64.4933 L36.0002,72.0003 L52.0002,72.0003 L52.0002,64.4933 C49.5202,65.4623 46.8232,66.0003 44.0002,66.0003" id="Fill-36" fill="#F35A5D"></path>
            <path d="M44.0002,21.9358 C41.1762,21.9358 38.4802,22.4738 36.0002,23.4428 L36.0002,15.9358 L52.0002,15.9358 L52.0002,23.4428 C49.5202,22.4738 46.8232,21.9358 44.0002,21.9358" id="Fill-40" fill="#F35A5D"></path>
            <path d="M37.0002,71.0003 L51.0002,71.0003 L51.0002,65.9083 C46.4752,67.3573 41.5242,67.3573 37.0002,65.9093 L37.0002,71.0003 Z M53.0002,14.9358 L53.0013177,22.8348069 C61.2231083,26.3444806 67.0002,34.5100236 67.0002,44.0003 C67.0002,53.4898281 61.2231083,61.6557427 53.0013177,65.1656509 L53.0002,73.0003 L35.0002,73.0003 L35.0000842,65.1660786 C26.7777611,61.6564061 21.0002,53.4902136 21.0002,44.0003 C21.0002,34.5096381 26.7777611,26.3438172 35.0000842,22.8343792 L35.0002,14.9358 L53.0002,14.9358 Z M44.0002,23.0003 C32.4202,23.0003 23.0002,32.4203 23.0002,44.0003 C23.0002,52.8374166 28.4871369,60.417547 36.2335926,63.5119396 L36.3642,63.5623 C37.8012008,64.1234538 39.2817968,64.521991 40.7915381,64.7550623 L41.3590291,64.8347023 L41.8709913,64.8929886 L41.8709913,64.8929886 L42.4946165,64.9469022 L42.4946165,64.9469022 L42.8976144,64.9716748 L42.8976144,64.9716748 L43.4868603,64.9941167 L43.4868603,64.9941167 L44.0002,65.0003 L44.5864581,64.9922329 L44.5864581,64.9922329 L45.0486024,64.9744084 L45.0486024,64.9744084 L45.5089728,64.9465585 L46.0388178,64.9019182 L46.0388178,64.9019182 L46.5666474,64.8439261 C48.1060812,64.6549688 49.6179774,64.2953104 51.0872502,63.7679257 L51.7429766,63.5212775 C59.5016192,60.4328176 65.0002,52.8463188 65.0002,44.0003 C65.0002,32.4203 55.5792,23.0003 44.0002,23.0003 Z M44.0002,56.7073 C45.1042,56.7073 46.0002,57.6033 46.0002,58.7073 C46.0002,59.8113 45.1042,60.7073 44.0002,60.7073 C42.8952,60.7073 42.0002,59.8113 42.0002,58.7073 C42.0002,57.6033 42.8952,56.7073 44.0002,56.7073 Z M41.4846,38.0783 L41.4846,49.5003 L38.3516,49.5003 L38.3516,43.4533 C38.3516,42.7193 38.3676,42.0473 38.3986,41.4373 C38.2056,41.6723 37.9656,41.9173 37.6796,42.1723 L36.3826,43.2423 L34.7816,41.2733 L38.7036,38.0783 L41.4846,38.0783 Z M48.2349,37.9143 C48.9739,37.9143 49.6339,38.0443 50.2149,38.3053 C50.7959,38.5653 51.2459,38.9373 51.5669,39.4183 C51.8869,39.8993 52.0469,40.4403 52.0469,41.0393 C52.0469,41.4873 51.9909,41.9013 51.8789,42.2813 C51.7669,42.6613 51.5939,43.0353 51.3599,43.4023 C51.1249,43.7703 50.8139,44.1563 50.4259,44.5633 L50.1613558,44.8300788 C49.7123766,45.2709172 48.9737125,45.9523 47.9459,46.8753 L47.9459,46.9533 L52.2659,46.9533 L52.2659,49.5003 L43.9769,49.5003 L43.9769,47.4693 L46.7659,44.6483 L47.5627002,43.8043059 C47.9222195,43.4166609 48.1771308,43.1289923 48.3279,42.9413 C48.5729,42.6373 48.7439,42.3753 48.8399,42.1563 C48.9359,41.9383 48.9849,41.7083 48.9849,41.4693 C48.9849,41.1723 48.8879,40.9373 48.6959,40.7663 C48.5029,40.5943 48.2319,40.5083 47.8829,40.5083 C47.5239,40.5083 47.1609,40.6103 46.7929,40.8163 C46.4259,41.0223 46.0109,41.3253 45.5469,41.7273 L43.8519,39.7423 C44.4399,39.2163 44.9349,38.8403 45.3359,38.6133 C45.7369,38.3873 46.1729,38.2143 46.6449,38.0943 C47.1159,37.9743 47.6459,37.9143 48.2349,37.9143 Z M44.0002,27.2073 C45.1042,27.2073 46.0002,28.1033 46.0002,29.2073 C46.0002,30.3113 45.1042,31.2073 44.0002,31.2073 C42.8952,31.2073 42.0002,30.3113 42.0002,29.2073 C42.0002,28.1033 42.8952,27.2073 44.0002,27.2073 Z M51.0002,16.9358 L37.0002,16.9358 L37.0002,22.0268 C39.2622,21.3028 41.6102,20.9358 44.0002,20.9358 C46.3892,20.9358 48.7382,21.3028 51.0002,22.0278 L51.0002,16.9358 Z" id="Shape" fill="#004684"></path>
        </g>
    </g>
</svg>