<?xml version="1.0" encoding="UTF-8"?>
<svg width="88px" height="88px" viewBox="0 0 88 88" version="1.1" xmlns="http://www.w3.org/2000/svg" xmlns:xlink="http://www.w3.org/1999/xlink">
    <!-- Generator: Sketch 63.1 (92452) - https://sketch.com -->
    <title>Coronapp_Icon_Instrucciones</title>
    <desc>Created with Sketch.</desc>
    <g id="Coronapp_Icon_Instrucciones" stroke="none" stroke-width="1" fill="none" fill-rule="evenodd">
        <g id="Group-21">
            <path d="M-0.0003,44.0003 C-0.0003,19.6993 19.6997,0.0003 43.9997,0.0003 C68.3007,0.0003 87.9997,19.6993 87.9997,44.0003 C87.9997,68.3003 68.3007,88.0003 43.9997,88.0003 C19.6997,88.0003 -0.0003,68.3003 -0.0003,44.0003" id="Fill-1" fill="#25CDCE"></path>
            <path d="M43.9997,24.0003 L43.9997,24.0003 C49.8327,24.0003 54.8727,28.0743 56.0957,33.7773 L59.9997,52.0003 C64.4187,52.0003 67.9997,55.5813 67.9997,60.0003 L19.9997,60.0003 C19.9997,55.5813 23.5817,52.0003 27.9997,52.0003 L31.9047,33.7773 C33.1267,28.0743 38.1667,24.0003 43.9997,24.0003" id="Fill-10" fill="#FFFFFF"></path>
            <path d="M53.3357,65.6513 L55.0317,66.6333 C52.7597,70.5613 48.5317,73.0003 43.9997,73.0003 C39.4677,73.0003 35.2407,70.5613 32.9677,66.6333 L34.6637,65.6513 C36.5877,68.9763 40.1647,71.0403 43.9997,71.0403 C47.8357,71.0403 51.4127,68.9763 53.3357,65.6513 Z M49.9407,63.6913 L51.6377,64.6733 C50.0647,67.3923 47.1387,69.0813 43.9997,69.0813 C40.8617,69.0813 37.9357,67.3923 36.3617,64.6733 L38.0597,63.6913 C39.2827,65.8073 41.5597,67.1213 43.9997,67.1213 C46.4407,67.1213 48.7177,65.8073 49.9407,63.6913 Z M43.9997,18.0003 C45.1037,18.0003 45.9997,18.8963 45.9997,20.0003 L45.9996464,23.1525987 C51.4017548,23.9807168 55.9019342,28.1062992 57.073,33.5683 L60.816,51.0363 C65.398,51.4503 69,55.3123 69,60.0003 L69,61.0003 L48.8990583,61.0012198 C48.4341607,63.2802441 46.4140121,65.0003 43.9997,65.0003 C41.5853879,65.0003 39.5652393,63.2802441 39.1003417,61.0012198 L19,61.0003 L19,60.0003 C19,55.3123 22.602,51.4503 27.183,51.0363 L30.926,33.5683 C32.0970209,28.1065089 36.5968997,23.9810335 41.9994409,23.1526941 L41.9997,20.0003 C41.9997,18.8963 42.8957,18.0003 43.9997,18.0003 Z M60,53.0003 L28,53.0003 C24.479,53.0003 21.558,55.6123 21.071,59.0003 L66.928,59.0003 C66.442,55.6123 63.52,53.0003 60,53.0003 Z M55.286,34.7773 L32.714,34.7773 L29.237,50.9993 L58.762,50.9993 L55.286,34.7773 Z M44,25.0003 C39.0969272,25.0003 34.7440817,28.204166 33.2138825,32.7774136 L54.7863364,32.7774136 C53.256912,28.204166 48.9039936,25.0003 44,25.0003 Z" id="Shape" fill="#004684"></path>
        </g>
    </g>
</svg>