<?xml version="1.0" encoding="UTF-8"?>
<svg width="88px" height="88px" viewBox="0 0 88 88" version="1.1" xmlns="http://www.w3.org/2000/svg" xmlns:xlink="http://www.w3.org/1999/xlink">
    <!-- Generator: Sketch 63.1 (92452) - https://sketch.com -->
    <title>Coronapp_Icon_Ayudar</title>
    <desc>Created with Sketch.</desc>
    <g id="Coronapp_Icon_Ayudar" stroke="none" stroke-width="1" fill="none" fill-rule="evenodd">
        <g id="Group-11">
            <path d="M-0.0003,43.9998 C-0.0003,19.6998 19.6997,-0.0002 43.9997,-0.0002 C68.3007,-0.0002 87.9997,19.6998 87.9997,43.9998 C87.9997,68.3008 68.3007,87.9998 43.9997,87.9998 C19.6997,87.9998 -0.0003,68.3008 -0.0003,43.9998" id="Fill-1" fill="#25CDCE"></path>
            <path d="M54.6355,23.9998 C50.5085,23.9998 46.9305,26.3268 45.1675,29.7278 C44.6805,30.6678 43.3205,30.6678 42.8325,29.7278 C41.0705,26.3268 37.4915,23.9998 33.3645,23.9998 C33.0375,23.9998 32.7155,24.0148 32.3965,24.0428 C25.2735,24.6798 21.6745,32.9628 25.6425,38.8538 L41.7175,62.7248 C42.8085,64.3438 45.1915,64.3438 46.2815,62.7248 L62.3585,38.8538 C66.3245,32.9628 62.7275,24.6798 55.6035,24.0428 C55.2845,24.0148 54.9615,23.9998 54.6355,23.9998" id="Fill-4" fill="#F35A5D"></path>
            <path d="M33.365,24.9998 C33.072,24.9998 32.776,25.0128 32.486,25.0398 C29.604,25.2968 27.127,27.0408 25.858,29.7038 C24.516,32.5208 24.746,35.7318 26.471,38.2948 L42.617,62.2698 C42.929,62.7338 43.434,62.9998 44.001,62.9998 C44.566,62.9998 45.07,62.7338 45.383,62.2698 L61.528,38.2948 C63.255,35.7318 63.484,32.5208 62.142,29.7028 C60.874,27.0398 58.396,25.2968 55.514,25.0398 C55.223,25.0128 54.928,24.9998 54.636,24.9998 C51.003,24.9998 47.715,26.9878 46.055,30.1878 C45.607,31.0518 44.667,31.5478 43.671,31.4108 C42.862,31.2988 42.227,30.6948 41.834,29.9788 C40.141,26.9018 36.919,24.9998 33.365,24.9998 M42.69,64.7678 C41.937,64.4948 41.324,63.9308 40.877,63.2658 L24.812,39.4128 C22.687,36.2568 22.403,32.3058 24.052,28.8428 C25.628,25.5348 28.715,23.3678 32.307,23.0468 C32.657,23.0158 33.012,22.9998 33.365,22.9998 C37.748,22.9998 41.717,25.4018 43.72,29.2678 C43.796,29.4118 43.928,29.4328 44,29.4328 C44.073,29.4328 44.205,29.4118 44.28,29.2678 C46.284,25.4018 50.253,22.9998 54.636,22.9998 C54.987,22.9998 55.344,23.0158 55.693,23.0468 C59.286,23.3678 62.372,25.5348 63.948,28.8428 C65.597,32.3058 65.312,36.2568 63.187,39.4128 L47.042,63.3868 C46.122,64.7528 44.367,65.3748 42.69,64.7678" id="Fill-6" fill="#004684"></path>
            <polygon id="Path" fill="#004684" points="45 38 45 43 50 43 50 45 45 45 45 50 43 50 43 45 38 45 38 43 43 43 43 38"></polygon>
        </g>
    </g>
</svg>