<?xml version="1.0" encoding="UTF-8"?>
<svg width="176px" height="176px" viewBox="0 0 176 176" version="1.1" xmlns="http://www.w3.org/2000/svg" xmlns:xlink="http://www.w3.org/1999/xlink">
    <!-- Generator: Sketch 63.1 (92452) - https://sketch.com -->
    <title>Reco_Ilus_CitaMedica</title>
    <desc>Created with Sketch.</desc>
    <defs>
        <polygon id="path-1" points="0 176 176 176 176 0 0 0"></polygon>
    </defs>
    <g id="Recomendaciones" stroke="none" stroke-width="1" fill="none" fill-rule="evenodd">
        <g id="Recomendaciones-SinSintomas" transform="translate(-47.000000, -7669.000000)">
            <g id="Reco_Ilus_CitaMedica" transform="translate(47.000000, 7669.000000)">
                <path d="M0,88 C0,39.399 39.399,0 88,0 C136.601,0 176,39.399 176,88 C176,136.601 136.601,176 88,176 C39.399,176 0,136.601 0,88" id="Fill-1" fill="#25CDCE"></path>
                <mask id="mask-2" fill="white">
                    <use xlink:href="#path-1"></use>
                </mask>
                <g id="Clip-4"></g>
                <polygon id="Fill-3" fill="#F35A5D" mask="url(#mask-2)" points="54 64 86 64 86 32 54 32"></polygon>
                <path d="M109,143 L55,143 L55,65 L86,65 C86.552,65 87,64.552 87,64 L87,33 L109,33 L109,143 Z M55,63 L85,63 L85,33 L55,33 L55,63 Z M110,31 L54,31 C53.448,31 53,31.448 53,32 L53,144 C53,144.553 53.448,145 54,145 L110,145 C110.553,145 111,144.553 111,144 L111,32 C111,31.448 110.553,31 110,31 L110,31 Z" id="Fill-5" fill="#004684" mask="url(#mask-2)"></path>
                <polygon id="Fill-6" fill="#004684" mask="url(#mask-2)" points="71 40 69 40 69 47 62 47 62 49 69 49 69 56 71 56 71 49 78 49 78 47 71 47"></polygon>
                <path d="M63,127 L69,127 L69,121 L63,121 L63,127 Z M70,119 L62,119 C61.448,119 61,119.447 61,120 L61,128 C61,128.553 61.448,129 62,129 L70,129 C70.552,129 71,128.553 71,128 L71,120 C71,119.447 70.552,119 70,119 L70,119 Z" id="Fill-7" fill="#004684" mask="url(#mask-2)"></path>
                <path d="M63,111 L69,111 L69,105 L63,105 L63,111 Z M70,103 L62,103 C61.448,103 61,103.447 61,104 L61,112 C61,112.553 61.448,113 62,113 L70,113 C70.552,113 71,112.553 71,112 L71,104 C71,103.447 70.552,103 70,103 L70,103 Z" id="Fill-8" fill="#004684" mask="url(#mask-2)"></path>
                <path d="M63,95 L69,95 L69,89 L63,89 L63,95 Z M70,87 L62,87 C61.448,87 61,87.448 61,88 L61,96 C61,96.553 61.448,97 62,97 L70,97 C70.552,97 71,96.553 71,96 L71,88 C71,87.448 70.552,87 70,87 L70,87 Z" id="Fill-9" fill="#004684" mask="url(#mask-2)"></path>
                <path d="M79,95 L85,95 L85,89 L79,89 L79,95 Z M86,87 L78,87 C77.448,87 77,87.448 77,88 L77,96 C77,96.553 77.448,97 78,97 L86,97 C86.552,97 87,96.553 87,96 L87,88 C87,87.448 86.552,87 86,87 L86,87 Z" id="Fill-10" fill="#004684" mask="url(#mask-2)"></path>
                <path d="M79,79 L85,79 L85,73 L79,73 L79,79 Z M86,71 L78,71 C77.448,71 77,71.448 77,72 L77,80 C77,80.552 77.448,81 78,81 L86,81 C86.552,81 87,80.552 87,80 L87,72 C87,71.448 86.552,71 86,71 L86,71 Z" id="Fill-11" fill="#004684" mask="url(#mask-2)"></path>
                <path d="M79,111 L85,111 L85,105 L79,105 L79,111 Z M86,103 L78,103 C77.447,103 77,103.447 77,104 L77,112 C77,112.553 77.447,113 78,113 L86,113 C86.553,113 87,112.553 87,112 L87,104 C87,103.447 86.553,103 86,103 L86,103 Z" id="Fill-12" fill="#004684" mask="url(#mask-2)"></path>
                <path d="M63,79 L69,79 L69,73 L63,73 L63,79 Z M70,71 L62,71 C61.448,71 61,71.448 61,72 L61,80 C61,80.552 61.448,81 62,81 L70,81 C70.552,81 71,80.552 71,80 L71,72 C71,71.448 70.552,71 70,71 L70,71 Z" id="Fill-13" fill="#004684" mask="url(#mask-2)"></path>
                <path d="M118,56 L102,56 L102,64 C102,72.836 109.163,80 118,80 L118,120 C109.163,120 102,127.163 102,136 L102,144 L118,144 C126.837,144 134,136.837 134,128 L134,72 C134,63.164 126.837,56 118,56" id="Fill-14" fill="#FFFFFF" mask="url(#mask-2)"></path>
                <path d="M105.4971,114.3467 C97.7891,118.8067 93.0001,127.1037 93.0001,135.9997 L95.0001,135.9997 C95.0001,127.8157 99.4061,120.1817 106.4991,116.0767 L105.4971,114.3467 Z" id="Fill-15" fill="#FFFFFF" mask="url(#mask-2)"></path>
                <path d="M102.498,109.1475 L101.496,107.4175 C91.321,113.3035 85,124.2555 85,136.0005 L87,136.0005 C87,124.9675 92.938,114.6785 102.498,109.1475" id="Fill-16" fill="#FFFFFF" mask="url(#mask-2)"></path>
                <path d="M133,128 C133,135.935 126.807,142.45 119,142.967 L119,119 L119,81 L119,57.033 C126.807,57.55 133,64.065 133,72 L133,128 Z M117,143 L103,143 L103,136 C103,128.065 109.193,121.55 117,121.033 L117,143 Z M103,64 L103,57 L117,57 L117,78.967 C109.193,78.45 103,71.935 103,64 L103,64 Z M119,55.051 L119,55 L118,55 L117,55 L101,55 L101,64 C101,73.037 108.092,80.427 117,80.949 L117,119.051 C108.092,119.572 101,126.964 101,136 L101,145 L117,145 L118,145 L119,145 L119,144.949 C127.908,144.428 135,137.036 135,128 L135,72 C135,62.963 127.908,55.573 119,55.051 L119,55.051 Z" id="Fill-17" fill="#004684" mask="url(#mask-2)"></path>
                <polygon id="Fill-18" fill="#004684" mask="url(#mask-2)" points="71 40 69 40 69 47 62 47 62 49 69 49 69 56 71 56 71 49 78 49 78 47 71 47"></polygon>
            </g>
        </g>
    </g>
</svg>