<?xml version="1.0" encoding="UTF-8"?>
<svg width="176px" height="176px" viewBox="0 0 176 176" version="1.1" xmlns="http://www.w3.org/2000/svg" xmlns:xlink="http://www.w3.org/1999/xlink">
    <!-- Generator: Sketch 63.1 (92452) - https://sketch.com -->
    <title>Reco_Ilus_HigieneCasa</title>
    <desc>Created with Sketch.</desc>
    <defs>
        <polygon id="path-1" points="0 0.0004 175.9999 0.0004 175.9999 176 0 176"></polygon>
        <polygon id="path-3" points="0 176 176 176 176 0 0 0"></polygon>
    </defs>
    <g id="Recomendaciones" stroke="none" stroke-width="1" fill="none" fill-rule="evenodd">
        <g id="Recomendaciones-SinSintomas" transform="translate(-47.000000, -6525.000000)">
            <g id="Reco_Ilus_HigieneCasa" transform="translate(47.000000, 6525.000000)">
                <g id="Group-3">
                    <mask id="mask-2" fill="white">
                        <use xlink:href="#path-1"></use>
                    </mask>
                    <g id="Clip-2"></g>
                    <path d="M-0.0001,88.0004 C-0.0001,39.3984 39.3989,0.0004 87.9999,0.0004 C136.6019,0.0004 175.9999,39.3984 175.9999,88.0004 C175.9999,136.6014 136.6019,176.0004 87.9999,176.0004 C39.3989,176.0004 -0.0001,136.6014 -0.0001,88.0004" id="Fill-1" fill="#25CDCE" mask="url(#mask-2)"></path>
                </g>
                <path d="M79.9999,56.0004 L63.9999,56.0004 L63.9999,72.0004 L71.9999,72.0004 L71.9999,64.0004 C76.4089,64.0304 79.9999,60.4654 79.9999,56.0564 L79.9999,56.0004 Z" id="Fill-4" fill="#F35A5D"></path>
                <mask id="mask-4" fill="white">
                    <use xlink:href="#path-3"></use>
                </mask>
                <g id="Clip-7"></g>
                <polygon id="Fill-6" fill="#FFFFFF" mask="url(#mask-4)" points="88 64 104 64 104 56 88 56"></polygon>
                <polygon id="Fill-8" fill="#FFFFFF" mask="url(#mask-4)" points="64 56 104 56 104 40 64 40"></polygon>
                <polygon id="Fill-9" fill="#FFFFFF" mask="url(#mask-4)" points="56 48 64 48 64 40 56 40"></polygon>
                <path d="M80.9999,55.0004 L64.9999,55.0004 L64.9999,49.0004 L64.9999,41.0004 L102.9999,41.0004 L102.9999,55.0004 L86.9999,55.0004 L80.9999,55.0004 Z M76.9489,60.9834 C75.6379,62.2854 73.9019,63.0004 72.0569,63.0004 L72.0069,63.0004 L70.9999,62.9934 L70.9999,71.0004 L64.9999,71.0004 L64.9999,57.0004 L78.9369,57.0004 C78.7329,58.5054 78.0459,59.8944 76.9489,60.9834 L76.9489,60.9834 Z M56.9999,47.0004 L62.9999,47.0004 L62.9999,41.0004 L56.9999,41.0004 L56.9999,47.0004 Z M103.2559,65.0004 L111.8129,93.5264 C110.2719,93.2684 109.2289,92.5834 108.0689,91.8104 C106.5469,90.7944 104.8209,89.6424 101.8509,89.6424 C98.8559,89.6424 97.2689,90.8074 95.8669,91.8354 C94.5459,92.8054 93.4049,93.6424 91.0649,93.6424 C88.7149,93.6424 87.5059,92.7984 86.1049,91.8214 C84.8749,90.9634 83.4959,90.0184 81.3239,89.7334 L88.7439,65.0004 L103.2559,65.0004 Z M88.9999,63.0004 L102.9999,63.0004 L102.9999,57.0004 L88.9999,57.0004 L88.9999,63.0004 Z M125.8679,133.4144 L104.9999,63.8534 L104.9999,39.0004 L54.9999,39.0004 L54.9999,49.0004 L62.9999,49.0004 L62.9999,73.0004 L72.9999,73.0004 L72.9999,64.9514 C75.0209,64.7404 76.8959,63.8554 78.3579,62.4024 C79.8359,60.9354 80.7349,59.0434 80.9489,57.0004 L86.9999,57.0004 L86.9999,63.8534 L79.2639,89.6424 L79.2559,89.6424 L66.1299,133.4154 C65.3049,136.1674 65.8149,139.0674 67.5309,141.3734 C69.2459,143.6784 71.8779,145.0004 74.7509,145.0004 L74.7529,145.0004 L117.2449,145.0004 L117.2479,145.0004 C120.1209,145.0004 122.7529,143.6784 124.4689,141.3724 C126.1839,139.0664 126.6929,136.1664 125.8679,133.4144 L125.8679,133.4144 Z" id="Fill-10" fill="#004684" mask="url(#mask-4)"></path>
            </g>
        </g>
    </g>
</svg>