<?xml version="1.0" encoding="UTF-8"?>
<svg width="176px" height="176px" viewBox="0 0 176 176" version="1.1" xmlns="http://www.w3.org/2000/svg" xmlns:xlink="http://www.w3.org/1999/xlink">
    <!-- Generator: Sketch 63.1 (92452) - https://sketch.com -->
    <title>Reco_Ilus_ToserEstornudar</title>
    <desc>Created with Sketch.</desc>
    <defs>
        <polygon id="path-1" points="0 176 176 176 176 0 0 0"></polygon>
    </defs>
    <g id="Recomendaciones" stroke="none" stroke-width="1" fill="none" fill-rule="evenodd">
        <g id="Recomendaciones-SinSintomas" transform="translate(-46.000000, -4299.000000)">
            <g id="Reco_Ilus_ToserEstornudar" transform="translate(46.000000, 4299.000000)">
                <path d="M0,88 C0,39.399 39.399,0 88,0 C136.601,0 176,39.399 176,88 C176,136.601 136.601,176 88,176 C39.399,176 0,136.601 0,88" id="Fill-1" fill="#25CDCE"></path>
                <polygon id="Fill-3" fill="#FFFFFF" points="105 64 105 40 89 40 89 32 73 32 73 64 49 64 49 104 129 104 129 64"></polygon>
                <mask id="mask-2" fill="white">
                    <use xlink:href="#path-1"></use>
                </mask>
                <g id="Clip-6"></g>
                <polygon id="Fill-5" fill="#F35A5D" mask="url(#mask-2)" points="49 136 129 136 129 104 49 104"></polygon>
                <path d="M128,103 L50,103 L50,65 L72,65 L72,79 L69,79 C66.243,79 64,81.243 64,84 C64,86.757 66.243,89 69,89 L72,89 L106,89 L109,89 C111.757,89 114,86.757 114,84 C114,81.243 111.757,79 109,79 L106,79 L106,65 L128,65 L128,103 Z M50,135 L128,135 L128,105 L50,105 L50,135 Z M74,33 L88,33 L88,80 L90,80 L90,41 L104,41 L104,87 L74,87 L74,33 Z M106,63 L106,39 L90,39 L90,31 L72,31 L72,63 L48,63 L48,137 L130,137 L130,63 L106,63 Z" id="Fill-7" fill="#004684" mask="url(#mask-2)"></path>
                <polygon id="Fill-8" fill="#004684" mask="url(#mask-2)" points="65 121 113 121 113 119 65 119"></polygon>
            </g>
        </g>
    </g>
</svg>