<?xml version="1.0" encoding="UTF-8"?>
<svg width="176px" height="176px" viewBox="0 0 176 176" version="1.1" xmlns="http://www.w3.org/2000/svg" xmlns:xlink="http://www.w3.org/1999/xlink">
    <!-- Generator: Sketch 63.1 (92452) - https://sketch.com -->
    <title>Reco_Ilus_NoAcudas</title>
    <desc>Created with Sketch.</desc>
    <g id="Recomendaciones" stroke="none" stroke-width="1" fill="none" fill-rule="evenodd">
        <g id="Recomendaciones-SinSintomas" transform="translate(-48.000000, -1547.000000)">
            <g id="Reco_Ilus_NoAcudas" transform="translate(48.000000, 1547.000000)">
                <path d="M175.9998,87.9998 C175.9998,136.6018 136.6018,175.9998 87.9998,175.9998 C66.5800737,175.9998 46.9477387,168.347154 31.687851,155.626662 L155.626662,31.687851 C168.347154,46.9477387 175.9998,66.5800737 175.9998,87.9998 Z M87.9998,-0.0002 C109.420438,-0.0002 129.053217,7.652976 144.313168,20.3741018 L20.3741018,144.313168 C7.652976,129.053217 -0.0002,109.420438 -0.0002,87.9998 C-0.0002,39.3988 39.3988,-0.0002 87.9998,-0.0002 Z" id="Combined-Shape" fill="#F35A5D"></path>
                <polygon id="Fill-4" fill="#FFFFFF" points="56 144 112 144 112 32 56 32"></polygon>
                <polygon id="Fill-6" fill="#25CDCE" points="80 144 120 144 120 104 80 104"></polygon>
                <polygon id="Fill-7" fill="#FFFFFF" points="104 120 112 120 112 112 104 112"></polygon>
                <polygon id="Fill-8" fill="#FFFFFF" points="88 120 96 120 96 112 88 112"></polygon>
                <polygon id="Fill-9" fill="#FFFFFF" points="96 144 104 144 104 128 96 128"></polygon>
                <polygon id="Fill-10" fill="#F35A5D" points="56 64 88 64 88 32 56 32"></polygon>
                <path d="M105,119 L111,119 L111,113 L105,113 L105,119 Z M104,121 L112,121 C112.553,121 113,120.553 113,120 L113,112 C113,111.447 112.553,111 112,111 L104,111 C103.447,111 103,111.447 103,112 L103,120 C103,120.553 103.447,121 104,121 L104,121 Z" id="Fill-11" fill="#004684"></path>
                <path d="M89,119 L95,119 L95,113 L89,113 L89,119 Z M88,121 L96,121 C96.553,121 97,120.553 97,120 L97,112 C97,111.447 96.553,111 96,111 L88,111 C87.448,111 87,111.447 87,112 L87,120 C87,120.553 87.448,121 88,121 L88,121 Z" id="Fill-12" fill="#004684"></path>
                <path d="M118.9998,142.9998 L104.9998,142.9998 L104.9998,127.9998 C104.9998,127.4468 104.5528,126.9998 103.9998,126.9998 L95.9998,126.9998 C95.4468,126.9998 94.9998,127.4468 94.9998,127.9998 L94.9998,142.9998 L80.9998,142.9998 L80.9998,104.9998 L118.9998,104.9998 L118.9998,142.9998 Z M96.9998,142.9998 L102.9998,142.9998 L102.9998,128.9998 L96.9998,128.9998 L96.9998,142.9998 Z M78.9998,103.9998 L78.9998,142.9998 L56.9998,142.9998 L56.9998,64.9998 L87.9998,64.9998 C88.5518,64.9998 88.9998,64.5518 88.9998,63.9998 L88.9998,32.9998 L110.9998,32.9998 L110.9998,102.9998 L79.9998,102.9998 C79.4478,102.9998 78.9998,103.4468 78.9998,103.9998 L78.9998,103.9998 Z M119.9998,102.9998 L112.9998,102.9998 L112.9998,31.9998 C112.9998,31.4478 112.5528,30.9998 111.9998,30.9998 L87.9998,30.9998 L55.9998,30.9998 C55.4478,30.9998 54.9998,31.4478 54.9998,31.9998 L54.9998,63.9998 L54.9998,143.9998 C54.9998,144.5528 55.4478,144.9998 55.9998,144.9998 L79.8928,144.9998 C79.8918,144.9928 79.8938,144.9848 79.8928,144.9788 C79.9298,144.9818 79.9618,144.9998 79.9998,144.9998 L95.9998,144.9998 L103.9998,144.9998 L119.9998,144.9998 C120.5528,144.9998 120.9998,144.5528 120.9998,143.9998 L120.9998,103.9998 C120.9998,103.4468 120.5528,102.9998 119.9998,102.9998 L119.9998,102.9998 Z" id="Fill-13" fill="#004684"></path>
                <polygon id="Fill-14" fill="#F35A5D" points="73.9998 39.9998 69.9998 39.9998 69.9998 45.9998 63.9998 45.9998 63.9998 49.9998 69.9998 49.9998 69.9998 55.9998 73.9998 55.9998 73.9998 49.9998 79.9998 49.9998 79.9998 45.9998 73.9998 45.9998"></polygon>
                <path d="M65,127 L71,127 L71,121 L65,121 L65,127 Z M72,119 L64,119 C63.448,119 63,119.447 63,120 L63,128 C63,128.553 63.448,129 64,129 L72,129 C72.552,129 73,128.553 73,128 L73,120 C73,119.447 72.552,119 72,119 L72,119 Z" id="Fill-15" fill="#004684"></path>
                <path d="M65,111 L71,111 L71,105 L65,105 L65,111 Z M72,103 L64,103 C63.448,103 63,103.447 63,104 L63,112 C63,112.553 63.448,113 64,113 L72,113 C72.552,113 73,112.553 73,112 L73,104 C73,103.447 72.552,103 72,103 L72,103 Z" id="Fill-16" fill="#004684"></path>
                <path d="M65,95 L71,95 L71,89 L65,89 L65,95 Z M72,87 L64,87 C63.448,87 63,87.448 63,88 L63,96 C63,96.553 63.448,97 64,97 L72,97 C72.552,97 73,96.553 73,96 L73,88 C73,87.448 72.552,87 72,87 L72,87 Z" id="Fill-17" fill="#004684"></path>
                <path d="M81,95 L87,95 L87,89 L81,89 L81,95 Z M88,87 L80,87 C79.448,87 79,87.448 79,88 L79,96 C79,96.553 79.448,97 80,97 L88,97 C88.552,97 89,96.553 89,96 L89,88 C89,87.448 88.552,87 88,87 L88,87 Z" id="Fill-18" fill="#004684"></path>
                <path d="M81,79 L87,79 L87,73 L81,73 L81,79 Z M88,71 L80,71 C79.448,71 79,71.448 79,72 L79,80 C79,80.552 79.448,81 80,81 L88,81 C88.552,81 89,80.552 89,80 L89,72 C89,71.448 88.552,71 88,71 L88,71 Z" id="Fill-19" fill="#004684"></path>
                <path d="M97,79 L103,79 L103,73 L97,73 L97,79 Z M104,71 L96,71 C95.447,71 95,71.448 95,72 L95,80 C95,80.552 95.447,81 96,81 L104,81 C104.553,81 105,80.552 105,80 L105,72 C105,71.448 104.553,71 104,71 L104,71 Z" id="Fill-20" fill="#004684"></path>
                <path d="M97,95 L103,95 L103,89 L97,89 L97,95 Z M104,87 L96,87 C95.447,87 95,87.448 95,88 L95,96 C95,96.553 95.447,97 96,97 L104,97 C104.553,97 105,96.553 105,96 L105,88 C105,87.448 104.553,87 104,87 L104,87 Z" id="Fill-21" fill="#004684"></path>
                <path d="M97,63 L103,63 L103,57 L97,57 L97,63 Z M104,55 L96,55 C95.447,55 95,55.448 95,56 L95,64 C95,64.552 95.447,65 96,65 L104,65 C104.553,65 105,64.552 105,64 L105,56 C105,55.448 104.553,55 104,55 L104,55 Z" id="Fill-22" fill="#004684"></path>
                <path d="M65,79 L71,79 L71,73 L65,73 L65,79 Z M72,71 L64,71 C63.448,71 63,71.448 63,72 L63,80 C63,80.552 63.448,81 64,81 L72,81 C72.552,81 73,80.552 73,80 L73,72 C73,71.448 72.552,71 72,71 L72,71 Z" id="Fill-23" fill="#004684"></path>
            </g>
        </g>
    </g>
</svg>