<?xml version="1.0" encoding="UTF-8"?>
<svg width="176px" height="176px" viewBox="0 0 176 176" version="1.1" xmlns="http://www.w3.org/2000/svg" xmlns:xlink="http://www.w3.org/1999/xlink">
    <!-- Generator: Sketch 63.1 (92452) - https://sketch.com -->
    <title>Reco_Ilus_DescansaBebe</title>
    <desc>Created with Sketch.</desc>
    <g id="Recomendaciones" stroke="none" stroke-width="1" fill="none" fill-rule="evenodd">
        <g id="Recomendaciones-SinSintomas" transform="translate(-46.000000, -5275.000000)">
            <g id="Reco_Ilus_DescansaBebe" transform="translate(46.000000, 5275.000000)">
                <path d="M0,88 C0,39.399 39.399,0 88,0 C136.601,0 176,39.399 176,88 C176,136.601 136.601,176 88,176 C39.399,176 0,136.601 0,88" id="Fill-1" fill="#25CDCE"></path>
                <polygon id="Fill-3" fill="#FFFFFF" points="120 64 56 64 64 136 112 136"></polygon>
                <path d="M107.5928,92.2363 C105.1248,90.1533 102.5738,88.0003 97.4698,88.0003 C92.3648,88.0003 89.8138,90.1533 87.3458,92.2353 C85.0528,94.1723 82.8858,96.0003 78.5128,96.0003 C74.1388,96.0003 71.9728,94.1723 69.6788,92.2353 C67.2318,90.1703 64.6978,88.0363 59.6728,88.0033 L57.1168,65.0003 L118.8828,65.0003 L115.4448,95.9473 C111.7288,95.6903 109.7028,94.0173 107.5928,92.2363 L107.5928,92.2363 Z M121.1168,63.0003 L54.8828,63.0003 L63.0068,136.1143 L63.0908,137.0003 L63.1048,137.0003 L112.8928,137.0003 L112.8958,137.0003 L113.0338,135.7503 L117.5438,96.0003 L117.4508,96.0003 L121.1168,63.0003 Z" id="Fill-5" fill="#004684"></path>
                <polygon id="Fill-7" fill="#004684" points="65.5293 46.2476 56.4803 46.2476 56.4803 46.1756 65.4093 33.0946 65.4093 31.8216 54.4883 31.8216 54.4883 33.5746 62.6973 33.5746 62.6973 33.6456 53.7193 46.7756 53.7193 47.9996 65.5293 47.9996"></polygon>
                <polygon id="Fill-9" fill="#004684" points="90.3555 46.8306 84.3215 46.8306 84.3215 46.7826 90.2755 38.0596 90.2755 37.2116 82.9925 37.2116 82.9925 38.3796 88.4665 38.3796 88.4665 38.4276 82.4805 47.1836 82.4805 47.9996 90.3555 47.9996"></polygon>
                <polygon id="Fill-11" fill="#004684" points="108.1738 47.4155 105.1588 47.4155 105.1588 47.3925 108.1338 43.0345 108.1338 42.6105 104.4958 42.6105 104.4958 43.1935 107.2308 43.1935 107.2308 43.2185 104.2398 47.5915 104.2398 47.9995 108.1738 47.9995"></polygon>
            </g>
        </g>
    </g>
</svg>