<?xml version="1.0" encoding="UTF-8"?>
<svg width="176px" height="176px" viewBox="0 0 176 176" version="1.1" xmlns="http://www.w3.org/2000/svg" xmlns:xlink="http://www.w3.org/1999/xlink">
    <!-- Generator: Sketch 63.1 (92452) - https://sketch.com -->
    <title>Reco_Ilus_ObservaEvolucion</title>
    <desc>Created with Sketch.</desc>
    <defs>
        <polygon id="path-1" points="0 0 175.9997 0 175.9997 176 0 176"></polygon>
    </defs>
    <g id="Recomendaciones" stroke="none" stroke-width="1" fill="none" fill-rule="evenodd">
        <g id="Recomendaciones-ConSintomas" transform="translate(-48.000000, -330.000000)">
            <g id="Reco_Ilus_ObservaEvolucion" transform="translate(48.000000, 330.000000)">
                <g id="Group-3">
                    <mask id="mask-2" fill="white">
                        <use xlink:href="#path-1"></use>
                    </mask>
                    <g id="Clip-2"></g>
                    <path d="M-0.0003,88 C-0.0003,39.399 39.3987,0 87.9997,0 C136.6017,0 175.9997,39.399 175.9997,88 C175.9997,136.601 136.6017,176 87.9997,176 C39.3987,176 -0.0003,136.601 -0.0003,88" id="Fill-1" fill="#25CDCE" mask="url(#mask-2)"></path>
                </g>
                <path d="M55.9997,105.6109 L49.9997,105.6109 C48.8957,105.6109 47.9997,104.7149 47.9997,103.6109 L47.9997,73.6109 C47.9997,60.3559 58.7447,49.6109 71.9997,49.6109 L77.9997,49.6109 C79.1037,49.6109 79.9997,50.5059 79.9997,51.6109 L79.9997,81.6109 C79.9997,94.8659 69.2547,105.6109 55.9997,105.6109" id="Fill-4" fill="#FFFFFF"></path>
                <path d="M119.9997,105.6109 L125.9997,105.6109 C127.1037,105.6109 127.9997,104.7149 127.9997,103.6109 L127.9997,73.6109 C127.9997,60.3559 117.2547,49.6109 103.9997,49.6109 L97.9997,49.6109 C96.8957,49.6109 95.9997,50.5059 95.9997,51.6109 L95.9997,81.6109 C95.9997,94.8659 106.7447,105.6109 119.9997,105.6109" id="Fill-6" fill="#FFFFFF"></path>
                <path d="M126.9997,103.6104 C126.9997,104.1624 126.5517,104.6104 125.9997,104.6104 L119.9997,104.6104 C107.3167,104.6104 96.9997,94.2934 96.9997,81.6104 L96.9997,71.5324 C99.8557,74.6674 103.1887,77.4024 106.9527,79.5804 C107.2687,79.7634 107.6127,79.8504 107.9527,79.8504 C108.6437,79.8504 109.3147,79.4914 109.6867,78.8514 C110.2387,77.8954 109.9127,76.6714 108.9567,76.1184 C104.1527,73.3394 100.1117,69.5664 96.9997,65.1634 L96.9997,51.6104 C96.9997,51.0594 97.4477,50.6104 97.9997,50.6104 L103.9997,50.6104 C116.6827,50.6104 126.9997,60.9284 126.9997,73.6104 L126.9997,103.6104 Z M78.9997,81.6104 C78.9997,94.2934 68.6827,104.6104 55.9997,104.6104 L49.9997,104.6104 C49.4487,104.6104 48.9997,104.1624 48.9997,103.6104 L48.9997,73.6104 C48.9997,60.9284 59.3177,50.6104 71.9997,50.6104 L77.9997,50.6104 C78.5517,50.6104 78.9997,51.0594 78.9997,51.6104 L78.9997,65.1634 C75.8877,69.5664 71.8477,73.3394 67.0437,76.1184 C66.0877,76.6714 65.7607,77.8954 66.3137,78.8514 C66.6847,79.4914 67.3557,79.8504 68.0467,79.8504 C68.3867,79.8504 68.7307,79.7634 69.0467,79.5804 C72.8107,77.4024 76.1447,74.6674 78.9997,71.5324 L78.9997,81.6104 Z M103.9997,48.6104 L97.9997,48.6104 C96.3457,48.6104 94.9997,49.9564 94.9997,51.6104 L94.9997,62.0454 C91.7847,56.4074 89.9997,49.9544 89.9997,43.2764 L89.9997,30.3894 C89.9997,29.2844 89.1037,28.3894 87.9997,28.3894 C86.8957,28.3894 85.9997,29.2844 85.9997,30.3894 L85.9997,43.2764 C85.9997,49.9544 84.2157,56.4074 80.9997,62.0454 L80.9997,51.6104 C80.9997,49.9564 79.6537,48.6104 77.9997,48.6104 L71.9997,48.6104 C58.2147,48.6104 46.9997,59.8254 46.9997,73.6104 L46.9997,103.6104 C46.9997,105.2644 48.3457,106.6104 49.9997,106.6104 L55.9997,106.6104 C69.7847,106.6104 80.9997,95.3954 80.9997,81.6104 L80.9997,69.1764 C84.0987,65.2304 86.4707,60.7524 87.9997,55.9624 C89.5297,60.7524 91.9017,65.2304 94.9997,69.1764 L94.9997,81.6104 C94.9997,95.3954 106.2147,106.6104 119.9997,106.6104 L125.9997,106.6104 C127.6537,106.6104 128.9997,105.2644 128.9997,103.6104 L128.9997,73.6104 C128.9997,59.8254 117.7847,48.6104 103.9997,48.6104 L103.9997,48.6104 Z" id="Fill-8" fill="#004684"></path>
                <path d="M103.9997,128 C103.9997,136.836 96.8367,144 87.9997,144 C79.1637,144 71.9997,136.836 71.9997,128 C71.9997,119.164 79.1637,112 87.9997,112 C96.8367,112 103.9997,119.164 103.9997,128" id="Fill-10" fill="#F35A5D"></path>
                <path d="M87.9997,143 C79.7287,143 72.9997,136.271 72.9997,128 C72.9997,119.729 79.7287,113 87.9997,113 C96.2707,113 102.9997,119.729 102.9997,128 C102.9997,136.271 96.2707,143 87.9997,143 M87.9997,111 C78.6257,111 70.9997,118.626 70.9997,128 C70.9997,137.374 78.6257,145 87.9997,145 C97.3737,145 104.9997,137.374 104.9997,128 C104.9997,118.626 97.3737,111 87.9997,111" id="Fill-12" fill="#004684"></path>
                <path d="M88.9997,127.5547 L88.9997,117.9997 C88.9997,117.4477 88.5527,116.9997 87.9997,116.9997 C87.4477,116.9997 86.9997,117.4477 86.9997,117.9997 L86.9997,127.9997 C86.9997,128.3137 87.1527,128.5817 87.3787,128.7647 L91.6607,132.9757 C91.8557,133.1667 92.1087,133.2627 92.3617,133.2627 C92.6207,133.2627 92.8797,133.1627 93.0747,132.9637 C93.4627,132.5707 93.4567,131.9367 93.0627,131.5497 L88.9997,127.5547 Z" id="Fill-14" fill="#004684"></path>
            </g>
        </g>
    </g>
</svg>