<?xml version="1.0" encoding="UTF-8"?>
<svg width="176px" height="176px" viewBox="0 0 176 176" version="1.1" xmlns="http://www.w3.org/2000/svg" xmlns:xlink="http://www.w3.org/1999/xlink">
    <!-- Generator: Sketch 63.1 (92452) - https://sketch.com -->
    <title>Reco_Ilus_ContactoVulnerables</title>
    <desc>Created with Sketch.</desc>
    <g id="Recomendaciones" stroke="none" stroke-width="1" fill="none" fill-rule="evenodd">
        <g id="Recomendaciones-SinSintomas" transform="translate(-48.000000, -2035.000000)">
            <g id="Reco_Ilus_ContactoVulnerables" transform="translate(48.000000, 2035.000000)">
                <path d="M176,88 C176,136.601 136.601,176 88,176 C66.5802737,176 46.9479387,168.34716 31.688051,155.626536 L155.626536,31.688051 C168.34716,46.9479387 176,66.5802737 176,88 Z M88,-2.27373675e-13 C109.420197,-2.27373675e-13 129.052924,7.653176 144.312955,20.3743018 L20.3743018,144.312955 C7.653176,129.052924 2.27373675e-13,109.420197 2.27373675e-13,88 C2.27373675e-13,39.399 39.399,-2.27373675e-13 88,-2.27373675e-13 Z" id="Combined-Shape" fill="#F35A5D"></path>
                <polygon id="Fill-3" fill="#004684" points="143.1309 88 143.1309 95 128.9999 95 128.9999 88 126.9999 88 126.9999 104 128.9999 104 128.9999 97 143.1309 97 143.1309 104 145.1309 104 145.1309 88"></polygon>
                <polygon id="Fill-5" fill="#004684" points="47 95 32.722 95 32.722 88 30.722 88 30.722 104 32.722 104 32.722 97 47 97 47 104 49 104 49 88 47 88"></polygon>
                <path d="M140.4785,64.8027 C138.9255,64.8027 137.5805,65.6867 136.9165,66.9787 C136.7335,67.3357 136.2225,67.3357 136.0395,66.9787 C135.3755,65.6867 134.0305,64.8027 132.4785,64.8027 C132.3555,64.8027 132.2335,64.8077 132.1145,64.8197 C129.4345,65.0607 128.0825,68.2077 129.5735,70.4467 L135.6465,79.5547 C136.0415,80.1487 136.9145,80.1487 137.3105,79.5547 L143.3825,70.4467 C144.8745,68.2077 143.5215,65.0607 140.8415,64.8197 C140.7225,64.8077 140.6005,64.8027 140.4785,64.8027" id="Fill-7" fill="#25CDCE"></path>
                <path d="M44.478,64.8027 C42.926,64.8027 41.58,65.6867 40.917,66.9787 C40.734,67.3357 40.222,67.3357 40.039,66.9787 C39.376,65.6867 38.03,64.8027 36.478,64.8027 C36.355,64.8027 36.234,64.8077 36.114,64.8197 C33.435,65.0607 32.082,68.2077 33.574,70.4467 L39.646,79.5547 C40.042,80.1487 40.914,80.1487 41.31,79.5547 L47.382,70.4467 C48.874,68.2077 47.521,65.0607 44.842,64.8197 C44.722,64.8077 44.601,64.8027 44.478,64.8027" id="Fill-9" fill="#25CDCE"></path>
                <path d="M132.4785,65.8027 C132.3865,65.8027 132.2965,65.8067 132.2075,65.8147 C131.3365,65.8937 130.6165,66.4047 130.2265,67.2177 C129.8065,68.0947 129.8745,69.0947 130.4055,69.8917 L136.4785,78.9997 L142.5505,69.8917 C143.0825,69.0947 143.1495,68.0947 142.7295,67.2187 C142.3405,66.4057 141.6195,65.8937 140.7515,65.8157 C139.5015,65.6957 138.3645,66.3467 137.8065,67.4357 C137.5485,67.9357 137.0405,68.2467 136.4775,68.2467 C135.9165,68.2467 135.4075,67.9357 135.1495,67.4367 C134.6325,66.4277 133.6095,65.8027 132.4785,65.8027 M136.4785,80.9997 L136.4765,80.9997 C135.8075,80.9997 135.1855,80.6667 134.8145,80.1087 L128.7415,71.0007 C127.8285,69.6307 127.7065,67.8507 128.4225,66.3547 C129.1145,64.9107 130.4605,63.9647 132.0245,63.8237 C132.1695,63.8097 132.3245,63.8027 132.4785,63.8027 C134.0755,63.8027 135.5425,64.5517 136.4775,65.8007 C137.4135,64.5517 138.8805,63.8027 140.4785,63.8027 C140.6315,63.8027 140.7865,63.8097 140.9355,63.8237 C142.4965,63.9647 143.8425,64.9107 144.5345,66.3557 C145.2495,67.8517 145.1275,69.6317 144.2145,71.0007 L138.1425,80.1097 C137.7705,80.6677 137.1485,80.9997 136.4785,80.9997" id="Fill-11" fill="#004684"></path>
                <path d="M36.478,65.8027 C36.387,65.8027 36.296,65.8067 36.207,65.8147 C35.336,65.8937 34.616,66.4047 34.227,67.2187 C33.807,68.0947 33.874,69.0947 34.406,69.8917 L40.478,78.9997 L46.55,69.8917 C47.082,69.0947 47.149,68.0947 46.729,67.2187 C46.34,66.4047 45.62,65.8937 44.752,65.8157 C43.514,65.7027 42.366,66.3467 41.807,67.4357 C41.55,67.9357 41.041,68.2467 40.478,68.2467 C39.915,68.2467 39.406,67.9357 39.149,67.4357 C38.632,66.4277 37.609,65.8027 36.478,65.8027 M40.478,80.9997 C39.808,80.9997 39.186,80.6667 38.814,80.1097 L32.742,71.0007 C31.829,69.6317 31.707,67.8507 32.422,66.3547 C33.114,64.9107 34.46,63.9647 36.024,63.8237 C36.171,63.8097 36.324,63.8027 36.478,63.8027 C38.075,63.8027 39.543,64.5517 40.478,65.8007 C41.503,64.4307 43.221,63.6657 44.936,63.8237 C46.496,63.9647 47.842,64.9107 48.534,66.3547 C49.249,67.8507 49.127,69.6317 48.214,71.0007 L42.142,80.1097 C41.77,80.6667 41.148,80.9997 40.478,80.9997" id="Fill-13" fill="#004684"></path>
                <polygon id="Fill-15" fill="#FFFFFF" points="81 63 95 63 95 49 81 49"></polygon>
                <polygon id="Fill-17" fill="#25CDCE" points="81 95 95 95 95 65 81 65"></polygon>
                <polygon id="Fill-18" fill="#FFFFFF" points="65 103 71 103 71 73 65 73"></polygon>
                <polygon id="Fill-19" fill="#FFFFFF" points="73 143 79 143 79 113 73 113"></polygon>
                <polygon id="Fill-20" fill="#FFFFFF" points="97 143 103 143 103 113 97 113"></polygon>
                <polygon id="Fill-21" fill="#FFFFFF" points="105 95 111 95 111 73 105 73"></polygon>
                <path d="M111,88.0254 C110.162,87.3914 109.13,87.0004 108,87.0004 C106.87,87.0004 105.838,87.3914 105,88.0254 L105,73.0004 L111,73.0004 L111,88.0254 Z M103,136.0254 C102.162,135.3904 101.13,135.0004 100,135.0004 C98.87,135.0004 97.838,135.3904 97,136.0254 L97,129.0004 L103,129.0004 L103,136.0254 Z M103,143.0004 L97,143.0004 L97,140.0004 C97,138.3454 98.346,137.0004 100,137.0004 C101.654,137.0004 103,138.3454 103,140.0004 L103,143.0004 Z M79,136.0254 C78.162,135.3904 77.13,135.0004 76,135.0004 C74.87,135.0004 73.838,135.3904 73,136.0254 L73,129.0004 L79,129.0004 L79,136.0254 Z M79,143.0004 L73,143.0004 L73,140.0004 C73,138.3454 74.346,137.0004 76,137.0004 C77.654,137.0004 79,138.3454 79,140.0004 L79,143.0004 Z M68,103.0004 C66.346,103.0004 65,101.6544 65,100.0004 L65,97.0004 L71,97.0004 L71,100.0004 C71,101.6544 69.654,103.0004 68,103.0004 L68,103.0004 Z M65,95.0004 L71,95.0004 L71,73.0004 L65,73.0004 L65,95.0004 Z M95,49.0004 L95,55.0004 L95,63.0004 L81,63.0004 L81,55.0004 L81,49.0004 L95,49.0004 Z M81,95.0004 L95,95.0004 L95,65.0004 L81,65.0004 L81,95.0004 Z M111,95.0004 L105,95.0004 L105,92.0004 C105,90.3454 106.346,89.0004 108,89.0004 C109.654,89.0004 111,90.3454 111,92.0004 L111,95.0004 Z M112.949,71.0004 C112.447,62.4244 105.575,55.5534 97,55.0504 L97,49.0004 L97,48.0004 C97,43.0374 92.963,39.0004 88,39.0004 C83.037,39.0004 79,43.0374 79,48.0004 L79,49.0004 L79,55.0504 C70.425,55.5534 63.553,62.4244 63.051,71.0004 L63,100.0004 C63,102.7564 65.243,105.0004 68,105.0004 C69.13,105.0004 70.162,104.6094 71,103.9744 L71,145.0004 L81,145.0004 L81,129.0004 L95,129.0004 L95,145.0004 L105,145.0004 L105,100.0004 C105,98.3454 106.346,97.0004 108,97.0004 C109.654,97.0004 111,98.3454 111,100.0004 L111,144.0004 C111,144.5524 111.447,145.0004 112,145.0004 C112.553,145.0004 113,144.5524 113,144.0004 L113,100.0004 C113,98.8704 112.609,97.8384 111.975,97.0004 L113,97.0004 L113,71.0004 L112.949,71.0004 Z" id="Fill-22" fill="#004684"></path>
            </g>
        </g>
    </g>
</svg>