<?xml version="1.0" encoding="UTF-8"?>
<svg width="176px" height="176px" viewBox="0 0 176 176" version="1.1" xmlns="http://www.w3.org/2000/svg" xmlns:xlink="http://www.w3.org/1999/xlink">
    <!-- Generator: Sketch 63.1 (92452) - https://sketch.com -->
    <title>Reco_Ilus_ComoTransmite</title>
    <desc>Created with Sketch.</desc>
    <defs>
        <polygon id="path-1" points="0 176 176 176 176 0 0 0"></polygon>
    </defs>
    <g id="Recomendaciones" stroke="none" stroke-width="1" fill="none" fill-rule="evenodd">
        <g id="Recomendaciones-SinSintomas" transform="translate(-47.000000, -7229.000000)">
            <g id="Reco_Ilus_ComoTransmite" transform="translate(47.000000, 7229.000000)">
                <path d="M0,88 C0,39.399 39.399,0 88,0 C136.601,0 176,39.399 176,88 C176,136.601 136.601,176 88,176 C39.399,176 0,136.601 0,88" id="Fill-1" fill="#F35A5D"></path>
                <path d="M88,136 L88,136 C70.327,136 56,121.673 56,104 L56,64 C56,46.327 70.327,32 88,32 C105.673,32 120,46.327 120,64 L120,104 C120,121.673 105.673,136 88,136" id="Fill-3" fill="#FFFFFF"></path>
                <path d="M122.4043,102.457 C118.9403,104.457 113.4753,102.993 113.4753,102.993 C113.4753,102.993 114.9403,97.529 118.4043,95.529 C120.3173,94.424 122.7633,95.08 123.8683,96.993 C124.9723,98.906 124.3173,101.353 122.4043,102.457" id="Fill-5" fill="#F35A5D"></path>
                <path d="M128.3613,125.376 C124.8973,123.376 123.4333,117.912 123.4333,117.912 C123.4333,117.912 128.8973,116.448 132.3613,118.448 C134.2743,119.553 134.9293,121.999 133.8253,123.912 C132.7203,125.825 130.2743,126.481 128.3613,125.376" id="Fill-7" fill="#25CDCE"></path>
                <path d="M96,119 C92.141,119 89,115.859 89,112 C89,108.141 92.141,105 96,105 C99.859,105 103,108.141 103,112 C103,115.859 99.859,119 96,119 M96,103 C91.037,103 87,107.037 87,112 C87,116.963 91.037,121 96,121 C100.963,121 105,116.963 105,112 C105,107.037 100.963,103 96,103" id="Fill-9" fill="#004684"></path>
                <mask id="mask-2" fill="white">
                    <use xlink:href="#path-1"></use>
                </mask>
                <g id="Clip-12"></g>
                <polygon id="Fill-11" fill="#004684" mask="url(#mask-2)" points="96 73 104 73 104 71 96 71"></polygon>
                <polygon id="Fill-13" fill="#004684" mask="url(#mask-2)" points="72 73 80 73 80 71 72 71"></polygon>
                <path d="M76,83 C74.346,83 73,81.654 73,80 C73,78.346 74.346,77 76,77 C77.654,77 79,78.346 79,80 C79,81.654 77.654,83 76,83 M76,75 C73.243,75 71,77.243 71,80 C71,82.757 73.243,85 76,85 C78.757,85 81,82.757 81,80 C81,77.243 78.757,75 76,75" id="Fill-14" fill="#004684" mask="url(#mask-2)"></path>
                <path d="M100,83 C98.346,83 97,81.654 97,80 C97,78.346 98.346,77 100,77 C101.654,77 103,78.346 103,80 C103,81.654 101.654,83 100,83 M100,75 C97.243,75 95,77.243 95,80 C95,82.757 97.243,85 100,85 C102.757,85 105,82.757 105,80 C105,77.243 102.757,75 100,75" id="Fill-15" fill="#004684" mask="url(#mask-2)"></path>
                <path d="M88,135 C70.907,135 57,121.094 57,104 L57,65 L64.414,65 L72.343,57.071 L119,64.847 L119,94.208 C118.623,94.319 118.253,94.461 117.904,94.663 C114.125,96.846 112.574,102.495 112.51,102.734 L112.251,103.7 L113.217,103.959 C113.355,103.996 115.319,104.51 117.682,104.51 C118.107,104.51 118.546,104.493 118.988,104.454 C118.744,121.338 104.941,135 88,135 M123.002,97.493 C123.829,98.926 123.337,100.764 121.904,101.591 C119.689,102.869 116.428,102.53 114.773,102.244 C115.351,100.668 116.69,97.674 118.904,96.396 C119.6,95.993 120.406,95.89 121.181,96.095 C121.954,96.303 122.602,96.799 123.002,97.493 M122.904,103.323 C125.292,101.944 126.112,98.881 124.734,96.493 C124.066,95.337 122.988,94.509 121.698,94.163 C121.467,94.102 121.233,94.076 121,94.047 L121,64 C121,45.804 106.196,31 88,31 C69.804,31 55,45.804 55,64 L55,104 C55,122.196 69.804,137 88,137 C106.161,137 120.941,122.252 120.997,104.104 C121.661,103.922 122.307,103.669 122.904,103.323" id="Fill-16" fill="#004684" mask="url(#mask-2)"></path>
                <path d="M132.959,123.4121 C132.559,124.1061 131.911,124.6021 131.138,124.8101 C130.363,125.0161 129.557,124.9121 128.861,124.5101 C126.647,123.2311 125.308,120.2371 124.731,118.6611 C126.386,118.3731 129.65,118.0381 131.861,119.3141 C133.294,120.1411 133.786,121.9791 132.959,123.4121 M132.861,117.5821 C129.084,115.4001 123.413,116.8821 123.175,116.9461 L122.209,117.2051 L122.468,118.1711 C122.532,118.4101 124.082,124.0591 127.861,126.2421 C128.632,126.6871 129.486,126.9141 130.354,126.9141 C130.787,126.9141 131.225,126.8571 131.655,126.7421 C132.945,126.3961 134.023,125.5681 134.691,124.4121 C136.069,122.0241 135.249,118.9611 132.861,117.5821" id="Fill-17" fill="#004684" mask="url(#mask-2)"></path>
                <path d="M134,105 C132.346,105 131,106.346 131,108 C131,109.654 132.346,111 134,111 C135.654,111 137,109.654 137,108 C137,106.346 135.654,105 134,105" id="Fill-18" fill="#004684" mask="url(#mask-2)"></path>
                <path d="M111,111 C109.346,111 108,112.346 108,114 C108,115.654 109.346,117 111,117 C112.654,117 114,115.654 114,114 C114,112.346 112.654,111 111,111" id="Fill-19" fill="#004684" mask="url(#mask-2)"></path>
                <path d="M118,127 C116.346,127 115,128.346 115,130 C115,131.654 116.346,133 118,133 C119.654,133 121,131.654 121,130 C121,128.346 119.654,127 118,127" id="Fill-20" fill="#004684" mask="url(#mask-2)"></path>
            </g>
        </g>
    </g>
</svg>