<?xml version="1.0" encoding="UTF-8"?>
<svg width="176px" height="176px" viewBox="0 0 176 176" version="1.1" xmlns="http://www.w3.org/2000/svg" xmlns:xlink="http://www.w3.org/1999/xlink">
    <!-- Generator: Sketch 63.1 (92452) - https://sketch.com -->
    <title>Reco_Ilus_PeriodoIncubacion</title>
    <desc>Created with Sketch.</desc>
    <defs>
        <polygon id="path-1" points="0.0002 0 176 0 176 175.9998 0.0002 175.9998"></polygon>
        <polygon id="path-3" points="0 176 176 176 176 0 0 0"></polygon>
    </defs>
    <g id="Recomendaciones" stroke="none" stroke-width="1" fill="none" fill-rule="evenodd">
        <g id="Recomendaciones-SinSintomas" transform="translate(-48.000000, -331.000000)">
            <g id="Reco_Ilus_PeriodoIncubacion" transform="translate(48.000000, 331.000000)">
                <g id="Group-3">
                    <mask id="mask-2" fill="white">
                        <use xlink:href="#path-1"></use>
                    </mask>
                    <g id="Clip-2"></g>
                    <path d="M0.0002,87.9998 C0.0002,39.3988 39.3992,-0.0002 88.0002,-0.0002 C136.6012,-0.0002 176.0002,39.3988 176.0002,87.9998 C176.0002,136.6008 136.6012,175.9998 88.0002,175.9998 C39.3992,175.9998 0.0002,136.6008 0.0002,87.9998" id="Fill-1" fill="#25CDCE" mask="url(#mask-2)"></path>
                </g>
                <path d="M81.0007,47.9998 C81.0007,38.6258 73.3747,30.9998 64.0007,30.9998 C54.7937,30.9998 47.2727,38.3558 47.0077,47.4998 L47.0007,93.0218 C47.0007,96.7758 48.2677,100.4758 50.5677,103.4428 L57.5307,112.4178 C58.4797,113.6388 59.0007,115.1628 59.0007,116.7078 L59.0007,126.9998 L59.0007,139.7318 L59.0007,139.8798 C59.0007,142.6368 61.2437,144.8798 64.0007,144.8798 C66.7577,144.8798 69.0007,142.6368 69.0007,139.8798 L69.0007,139.7318 L69.0007,126.9998 L69.0007,116.7358 C69.0007,115.1918 69.5217,113.6698 70.4657,112.4508 L77.4427,103.4378 C79.7367,100.4728 81.0007,96.7778 81.0007,93.0308 L81.0007,48.4998 L80.9937,48.2218 C80.9977,48.1478 81.0007,48.0738 81.0007,47.9998" id="Fill-4" fill="#004684"></path>
                <path d="M60.0007,84.1585 L60.0007,47.9995 C60.0007,45.7905 61.7917,43.9995 64.0007,43.9995 C66.2097,43.9995 68.0007,45.7905 68.0007,47.9995 L68.0007,84.1585 C68.0007,86.3675 66.2097,88.1585 64.0007,88.1585 C61.7917,88.1585 60.0007,86.3675 60.0007,84.1585 Z" id="Fill-6" fill="#FFFFFF"></path>
                <path d="M60.0007,92.1585 L60.0007,79.9995 C60.0007,77.7905 61.7917,75.9995 64.0007,75.9995 C66.2097,75.9995 68.0007,77.7905 68.0007,79.9995 L68.0007,92.1585 C68.0007,94.3675 66.2097,96.1585 64.0007,96.1585 C61.7917,96.1585 60.0007,94.3675 60.0007,92.1585 Z" id="Fill-8" fill="#F35A5D"></path>
                <path d="M64.0007,142.8801 C65.6547,142.8801 67.0007,141.5341 67.0007,139.8801 L67.0007,129.0001 L61.0007,129.0001 L61.0007,139.8801 C61.0007,141.5341 62.3467,142.8801 64.0007,142.8801" id="Fill-10" fill="#FFFFFF"></path>
                <path d="M98.8556,37.3289 L98.8556,37.2649 C98.8556,35.8889 97.7036,34.8009 96.4236,34.8009 C95.1116,34.8009 93.9916,35.8889 93.9916,37.2649 L93.9916,37.3289 C93.9916,38.7049 95.0476,39.7609 96.4236,39.7609 C97.7996,39.7609 98.8556,38.7049 98.8556,37.3289 M90.3116,37.3289 L90.3116,37.2649 C90.3116,33.9689 93.1276,31.3129 96.4236,31.3129 C99.6556,31.3129 102.5356,33.9689 102.5356,37.2649 L102.5356,37.3289 C102.5356,40.6249 99.7836,43.2489 96.4236,43.2489 C93.0636,43.2489 90.3116,40.6249 90.3116,37.3289" id="Fill-12" fill="#004684"></path>
                <path d="M104.6154,42.8645 L104.6154,42.8005 C104.6154,36.1135 109.8314,31.1215 116.5184,31.1215 C121.4464,31.1215 124.7744,33.5215 126.6624,36.9455 L120.4864,40.5605 C119.6544,38.9605 118.4704,37.8415 116.4234,37.8415 C113.8944,37.8415 112.2314,40.0485 112.2314,42.7365 L112.2314,42.8005 C112.2314,45.7125 113.9594,47.7605 116.4234,47.7605 C118.5344,47.7605 119.7194,46.6085 120.6464,44.9445 L126.8224,48.4325 C124.9344,51.7605 121.7994,54.4795 116.2304,54.4795 C110.0234,54.4795 104.6154,49.8075 104.6154,42.8645" id="Fill-14" fill="#004684"></path>
                <mask id="mask-4" fill="white">
                    <use xlink:href="#path-3"></use>
                </mask>
                <g id="Clip-17"></g>
                <path d="M89,143 L127,143 L127,113 L89,113 L89,143 Z M89,111 L127,111 L127,105 L89,105 L89,111 Z M128,103 L121,103 L121,96 C121,95.448 120.553,95 120,95 C119.447,95 119,95.448 119,96 L119,103 L97,103 L97,96 C97,95.448 96.553,95 96,95 C95.447,95 95,95.448 95,96 L95,103 L88.001,103 C87.448,103 87.001,103.448 87.001,104 L87.001,144 C87.001,144.553 87.448,145 88.001,145 L128,145 C128.553,145 129,144.553 129,144 L129,104 C129,103.448 128.553,103 128,103 L128,103 Z" id="Fill-16" fill="#004684" mask="url(#mask-4)"></path>
                <polygon id="Fill-18" fill="#004684" mask="url(#mask-4)" points="104 121 120 121 120 119 104 119"></polygon>
                <polygon id="Fill-19" fill="#004684" mask="url(#mask-4)" points="96 129 120 129 120 127 96 127"></polygon>
                <polygon id="Fill-20" fill="#004684" mask="url(#mask-4)" points="96 137 112 137 112 135 96 135"></polygon>
            </g>
        </g>
    </g>
</svg>