<?xml version="1.0" encoding="UTF-8"?>
<svg width="176px" height="176px" viewBox="0 0 176 176" version="1.1" xmlns="http://www.w3.org/2000/svg" xmlns:xlink="http://www.w3.org/1999/xlink">
    <!-- Generator: Sketch 63.1 (92452) - https://sketch.com -->
    <title>Reco_Ilus_SiMascarilla</title>
    <desc>Created with Sketch.</desc>
    <g id="Recomendaciones" stroke="none" stroke-width="1" fill="none" fill-rule="evenodd">
        <g id="Recomendaciones-ConSintomas" transform="translate(-48.000000, -1331.000000)">
            <g id="Reco_Ilus_SiMascarilla" transform="translate(48.000000, 1331.000000)">
                <path d="M88,0 C136.601,0 176,39.399 176,88 C176,136.601 136.601,176 88,176 C39.399,176 0,136.601 0,88 C0,39.399 39.399,0 88,0 Z" id="Fill-1" fill="#25CDCE"></path>
                <path d="M88,136 L88,136 C70.327,136 56,121.673 56,104 L56,64 C56,46.327 70.327,32 88,32 C105.673,32 120,46.327 120,64 L120,104 C120,121.673 105.673,136 88,136" id="Fill-3" fill="#FFFFFF"></path>
                <path d="M96,128 L80,128 C75.582,128 72,124.418 72,120 L72,96 L104,96 L104,120 C104,124.418 100.418,128 96,128" id="Fill-5" fill="#F35A5D"></path>
                <path d="M119,95 L105,95 L104,95 L72,95 L71,95 L57,95 L57,65 L64.414,65 L72.343,57.071 L119,64.847 L119,95 Z M105,99 L119,99 L119,97 L105,97 L105,99 Z M116.977,115 L105,115 L105,101 L119,101 L119,104 C119,107.873 118.28,111.579 116.977,115 L116.977,115 Z M88,135 C77.181,135 67.644,129.425 62.096,121 L71.059,121 C71.559,125.493 75.376,129 80,129 L96,129 C100.625,129 104.441,125.493 104.941,121 L113.904,121 C108.356,129.425 98.819,135 88,135 L88,135 Z M71,119 L60.883,119 C60.521,118.348 60.184,117.68 59.868,117 L71,117 L71,119 Z M57,101 L71,101 L71,115 L59.023,115 C57.72,111.579 57,107.873 57,104 L57,101 Z M57,99 L71,99 L71,97 L57,97 L57,99 Z M103,100 L103,116 L103,120 C103,123.859 99.859,127 96,127 L80,127 C76.14,127 73,123.859 73,120 L73,116 L73,100 L73,97 L103,97 L103,100 Z M105,117 L116.132,117 C115.816,117.68 115.479,118.348 115.117,119 L105,119 L105,117 Z M88,31 C69.804,31 55,45.804 55,64 L55,65 L55,96 L55,100 L55,104 C55,122.196 69.804,137 88,137 C106.196,137 121,122.196 121,104 L121,100 L121,96 L121,65.181 L121,64 C121,45.804 106.196,31 88,31 L88,31 Z" id="Fill-7" fill="#004684"></path>
                <polygon id="Fill-9" fill="#004684" points="96 73 104 73 104 71 96 71"></polygon>
                <polygon id="Fill-11" fill="#004684" points="72 73 80 73 80 71 72 71"></polygon>
                <path d="M76,83 C74.346,83 73,81.654 73,80 C73,78.346 74.346,77 76,77 C77.654,77 79,78.346 79,80 C79,81.654 77.654,83 76,83 M76,75 C73.243,75 71,77.243 71,80 C71,82.757 73.243,85 76,85 C78.757,85 81,82.757 81,80 C81,77.243 78.757,75 76,75" id="Fill-12" fill="#004684"></path>
                <path d="M100,77 C101.654,77 103,78.346 103,80 C103,81.654 101.654,83 100,83 C98.346,83 97,81.654 97,80 C97,78.346 98.346,77 100,77 M100,85 C102.757,85 105,82.757 105,80 C105,77.243 102.757,75 100,75 C97.243,75 95,77.243 95,80 C95,82.757 97.243,85 100,85" id="Fill-13" fill="#004684"></path>
                <polygon id="Fill-14" fill="#004684" points="80 105 96 105 96 103 80 103"></polygon>
                <polygon id="Fill-15" fill="#004684" points="80 113 96 113 96 111 80 111"></polygon>
                <polygon id="Fill-16" fill="#004684" points="80 121 96 121 96 119 80 119"></polygon>
            </g>
        </g>
    </g>
</svg>