<?xml version="1.0" encoding="UTF-8"?>
<svg width="176px" height="176px" viewBox="0 0 176 176" version="1.1" xmlns="http://www.w3.org/2000/svg" xmlns:xlink="http://www.w3.org/1999/xlink">
    <!-- Generator: Sketch 63.1 (92452) - https://sketch.com -->
    <title>Reco_Ilus_NoTocarCara</title>
    <desc>Created with Sketch.</desc>
    <g id="Recomendaciones" stroke="none" stroke-width="1" fill="none" fill-rule="evenodd">
        <g id="Recomendaciones-SinSintomas" transform="translate(-46.000000, -3835.000000)">
            <g id="Reco_Ilus_NoTocarCara" transform="translate(46.000000, 3835.000000)">
                <path d="M176,88 C176,136.601 136.601,176 88,176 C66.3996078,176 46.6168859,168.217519 31.3028547,155.303578 L155.303578,31.3028547 C168.217519,46.6168859 176,66.3996078 176,88 Z M88,0 C109.600863,0 129.383976,7.78281988 144.698146,20.6972659 L20.6972659,144.698146 C7.78281988,129.383976 0,109.600863 0,88 C0,39.399 39.399,0 88,0 Z" id="Combined-Shape" fill="#F35A5D"></path>
                <path d="M87.9999,136 L87.9999,136 C70.3269,136 55.9999,121.673 55.9999,104 L55.9999,64 C55.9999,46.327 70.3269,32 87.9999,32 C105.6729,32 119.9999,46.327 119.9999,64 L119.9999,104 C119.9999,121.673 105.6729,136 87.9999,136" id="Fill-36" fill="#FFFFFF"></path>
                <path d="M87.9999,33 C70.9059,33 56.9999,46.906 56.9999,64 L56.9999,104 C56.9999,121.094 70.9059,135 87.9999,135 C105.0939,135 118.9999,121.094 118.9999,104 L118.9999,64 C118.9999,46.906 105.0939,33 87.9999,33 M87.9999,137 C69.8039,137 54.9999,122.196 54.9999,104 L54.9999,64 C54.9999,45.804 69.8039,31 87.9999,31 C106.1959,31 120.9999,45.804 120.9999,64 L120.9999,104 C120.9999,122.196 106.1959,137 87.9999,137" id="Fill-37" fill="#004684"></path>
                <path d="M79.9999,105 C76.1409,105 72.9999,108.141 72.9999,112 C72.9999,115.859 76.1409,119 79.9999,119 L95.9999,119 C99.8589,119 102.9999,115.859 102.9999,112 C102.9999,108.141 99.8589,105 95.9999,105 L79.9999,105 Z M95.9999,121 L79.9999,121 C75.0369,121 70.9999,116.963 70.9999,112 C70.9999,107.037 75.0369,103 79.9999,103 L95.9999,103 C100.9629,103 104.9999,107.037 104.9999,112 C104.9999,116.963 100.9629,121 95.9999,121 L95.9999,121 Z" id="Fill-38" fill="#004684"></path>
                <polygon id="Fill-39" fill="#004684" points="80 113 96 113 96 111 80 111"></polygon>
                <path d="M111.9999,144 L103.9999,144 C95.1629,144 87.9999,136.837 87.9999,128 L87.9999,112 L127.9999,120 L127.9999,128 C127.9999,136.837 120.8369,144 111.9999,144" id="Fill-40" fill="#FFFFFF"></path>
                <path d="M88.9999,113.2197 L88.9999,127.9997 C88.9999,136.2717 95.7289,142.9997 103.9999,142.9997 L111.9999,142.9997 C120.2709,142.9997 126.9999,136.2717 126.9999,127.9997 L126.9999,120.8197 L88.9999,113.2197 Z M111.9999,144.9997 L103.9999,144.9997 C94.6259,144.9997 86.9999,137.3737 86.9999,127.9997 L86.9999,110.7807 L128.9999,119.1807 L128.9999,127.9997 C128.9999,137.3737 121.3739,144.9997 111.9999,144.9997 L111.9999,144.9997 Z" id="Fill-41" fill="#004684"></path>
                <path d="M119.9999,120 L119.9999,120 C119.9999,115.582 123.5819,112 127.9999,112 L127.9999,128" id="Fill-42" fill="#FFFFFF"></path>
                <path d="M128.9999,128 L126.9999,128 L126.9999,113.071 C123.6119,113.558 120.9999,116.479 120.9999,120 L118.9999,120 C118.9999,115.037 123.0369,111 127.9999,111 L128.9999,111 L128.9999,128 Z" id="Fill-43" fill="#004684"></path>
                <path d="M95.9999,120 L95.9999,100 C95.9999,97.791 97.7909,96 99.9999,96 C102.2089,96 103.9999,97.791 103.9999,100 L103.9999,120" id="Fill-44" fill="#FFFFFF"></path>
                <path d="M104.9999,120 L102.9999,120 L102.9999,100 C102.9999,98.346 101.6539,97 99.9999,97 C98.3459,97 96.9999,98.346 96.9999,100 L96.9999,120 L94.9999,120 L94.9999,100 C94.9999,97.243 97.2429,95 99.9999,95 C102.7569,95 104.9999,97.243 104.9999,100 L104.9999,120 Z" id="Fill-45" fill="#004684"></path>
                <path d="M103.9999,120 L103.9999,92 C103.9999,89.791 105.7909,88 107.9999,88 C110.2089,88 111.9999,89.791 111.9999,92 L111.9999,120" id="Fill-46" fill="#FFFFFF"></path>
                <path d="M112.9999,120 L110.9999,120 L110.9999,92 C110.9999,90.346 109.6539,89 107.9999,89 C106.3459,89 104.9999,90.346 104.9999,92 L104.9999,120 L102.9999,120 L102.9999,92 C102.9999,89.243 105.2429,87 107.9999,87 C110.7569,87 112.9999,89.243 112.9999,92 L112.9999,120 Z" id="Fill-47" fill="#004684"></path>
                <path d="M111.9999,120 L111.9999,100 C111.9999,97.791 113.7909,96 115.9999,96 C118.2089,96 119.9999,97.791 119.9999,100 L119.9999,120" id="Fill-48" fill="#FFFFFF"></path>
                <path d="M120.9999,120 L118.9999,120 L118.9999,100 C118.9999,98.346 117.6539,97 115.9999,97 C114.3459,97 112.9999,98.346 112.9999,100 L112.9999,120 L110.9999,120 L110.9999,100 C110.9999,97.243 113.2429,95 115.9999,95 C118.7569,95 120.9999,97.243 120.9999,100 L120.9999,120 Z" id="Fill-49" fill="#004684"></path>
                <path d="M87.9999,128 L87.9999,108 C87.9999,105.791 89.7909,104 91.9999,104 C94.2089,104 95.9999,105.791 95.9999,108 L95.9999,120" id="Fill-50" fill="#FFFFFF"></path>
                <path d="M88.9999,128 L86.9999,128 L86.9999,108 C86.9999,105.243 89.2429,103 91.9999,103 C94.7569,103 96.9999,105.243 96.9999,108 L96.9999,120 L94.9999,120 L94.9999,108 C94.9999,106.346 93.6539,105 91.9999,105 C90.3459,105 88.9999,106.346 88.9999,108 L88.9999,128 Z" id="Fill-51" fill="#004684"></path>
                <path d="M71.9999,56 L63.9999,64 L55.9999,64 C55.9999,46.327 70.3269,32 87.9999,32 C105.6729,32 119.9999,46.327 119.9999,64 L71.9999,56 Z" id="Fill-52" fill="#004684"></path>
                <path d="M57.0155,63 L63.5855,63 L71.6575,54.929 L118.9775,62.815 C118.3535,46.269 104.6975,33 87.9995,33 C71.2415,33 57.5455,46.368 57.0155,63 L57.0155,63 Z M120.9995,65.181 L72.3425,57.071 L64.4135,65 L54.9995,65 L54.9995,64 C54.9995,45.804 69.8035,31 87.9995,31 C106.1965,31 120.9995,45.804 120.9995,64 L120.9995,65.181 Z" id="Fill-53" fill="#004684"></path>
                <polygon id="Fill-54" fill="#004684" points="88 113 96 113 96 111 88 111"></polygon>
                <polygon id="Fill-55" fill="#004684" points="96 105 104 105 104 103 96 103"></polygon>
                <polygon id="Fill-56" fill="#004684" points="104 97 112 97 112 95 104 95"></polygon>
                <polygon id="Fill-57" fill="#004684" points="112 105 120 105 120 103 112 103"></polygon>
                <polygon id="Fill-58" fill="#004684" points="120 121 128 121 128 119 120 119"></polygon>
                <polygon id="Fill-59" fill="#004684" points="96 73 104 73 104 71 96 71"></polygon>
                <polygon id="Fill-60" fill="#004684" points="72 73 80 73 80 71 72 71"></polygon>
                <path d="M75.9999,77 C74.3459,77 72.9999,78.346 72.9999,80 C72.9999,81.654 74.3459,83 75.9999,83 C77.6539,83 78.9999,81.654 78.9999,80 C78.9999,78.346 77.6539,77 75.9999,77 M75.9999,85 C73.2429,85 70.9999,82.757 70.9999,80 C70.9999,77.243 73.2429,75 75.9999,75 C78.7569,75 80.9999,77.243 80.9999,80 C80.9999,82.757 78.7569,85 75.9999,85" id="Fill-61" fill="#004684"></path>
                <path d="M99.9999,77 C98.3459,77 96.9999,78.346 96.9999,80 C96.9999,81.654 98.3459,83 99.9999,83 C101.6539,83 102.9999,81.654 102.9999,80 C102.9999,78.346 101.6539,77 99.9999,77 M99.9999,85 C97.2429,85 94.9999,82.757 94.9999,80 C94.9999,77.243 97.2429,75 99.9999,75 C102.7569,75 104.9999,77.243 104.9999,80 C104.9999,82.757 102.7569,85 99.9999,85" id="Fill-62" fill="#004684"></path>
            </g>
        </g>
    </g>
</svg>