<?xml version="1.0" encoding="UTF-8"?>
<svg width="176px" height="176px" viewBox="0 0 176 176" version="1.1" xmlns="http://www.w3.org/2000/svg" xmlns:xlink="http://www.w3.org/1999/xlink">
    <!-- Generator: Sketch 63.1 (92452) - https://sketch.com -->
    <title>Reco_Ilus_EvitaContacto</title>
    <desc>Created with Sketch.</desc>
    <g id="Recomendaciones" stroke="none" stroke-width="1" fill="none" fill-rule="evenodd">
        <g id="Recomendaciones-SinSintomas" transform="translate(-46.000000, -4811.000000)">
            <g id="Reco_Ilus_EvitaContacto" transform="translate(46.000000, 4811.000000)">
                <path d="M-0.0002,88.0002 C-0.0002,39.3992 39.3988,0.0002 87.9998,0.0002 C136.6018,0.0002 175.9998,39.3992 175.9998,88.0002 C175.9998,136.6012 136.6018,176.0002 87.9998,176.0002 C39.3988,176.0002 -0.0002,136.6012 -0.0002,88.0002" id="Fill-1" fill="#F35A5D"></path>
                <polygon id="Fill-4" fill="#FFFFFF" points="48 136 64 136 64 104 48 104"></polygon>
                <path d="M47.9998,63.9998 L47.9998,95.9998 L47.9998,99.9998 C47.9998,102.2088 46.2088,103.9998 43.9998,103.9998 C41.7908,103.9998 39.9998,102.2088 39.9998,99.9998 L39.9998,95.9998 L39.9998,71.9998 C39.9998,67.5818 43.5818,63.9998 47.9998,63.9998" id="Fill-6" fill="#FFFFFF"></path>
                <path d="M63.9998,63.9998 L63.9998,95.9998 L63.9998,99.9998 C63.9998,102.2088 65.7908,103.9998 67.9998,103.9998 C70.2088,103.9998 71.9998,102.2088 71.9998,99.9998 L71.9998,95.9998 L71.9998,71.9998 C71.9998,67.5818 68.4178,63.9998 63.9998,63.9998" id="Fill-7" fill="#FFFFFF"></path>
                <path d="M55.9998,39.9998 L55.9998,39.9998 C51.5818,39.9998 47.9998,43.5818 47.9998,47.9998 L47.9998,55.9998 C47.9998,60.4178 51.5818,63.9998 55.9998,63.9998 C60.4178,63.9998 63.9998,60.4178 63.9998,55.9998 L63.9998,47.9998 C63.9998,43.5818 60.4178,39.9998 55.9998,39.9998" id="Fill-8" fill="#FFFFFF"></path>
                <polygon id="Fill-9" fill="#FFFFFF" points="112 136 128 136 128 104 112 104"></polygon>
                <path d="M107.9998,104.0002 L107.9998,104.0002 C105.7908,104.0002 103.9998,102.2092 103.9998,100.0002 L103.9998,96.0002 L111.9998,96.0002 L111.9998,100.0002 C111.9998,102.2092 110.2088,104.0002 107.9998,104.0002" id="Fill-10" fill="#FFFFFF"></path>
                <path d="M131.9998,104.0002 L131.9998,104.0002 C129.7908,104.0002 127.9998,102.2092 127.9998,100.0002 L127.9998,96.0002 L135.9998,96.0002 L135.9998,100.0002 C135.9998,102.2092 134.2088,104.0002 131.9998,104.0002" id="Fill-11" fill="#FFFFFF"></path>
                <path d="M119.9998,39.9998 L119.9998,39.9998 C115.5818,39.9998 111.9998,43.5818 111.9998,47.9998 L111.9998,55.9998 C111.9998,60.4178 115.5818,63.9998 119.9998,63.9998 C124.4188,63.9998 127.9998,60.4178 127.9998,55.9998 L127.9998,47.9998 C127.9998,43.5818 124.4188,39.9998 119.9998,39.9998" id="Fill-12" fill="#FFFFFF"></path>
                <path d="M134.9998,100.0002 C134.9998,101.6542 133.6538,103.0002 131.9998,103.0002 C130.3458,103.0002 128.9998,101.6542 128.9998,100.0002 L128.9998,97.0002 L134.9998,97.0002 L134.9998,100.0002 Z M126.9998,128.0252 C126.1618,127.3912 125.1298,127.0002 123.9998,127.0002 C122.8698,127.0002 121.8378,127.3912 120.9998,128.0252 L120.9998,105.0002 L126.9998,105.0002 L126.9998,128.0252 Z M126.9998,135.0002 L120.9998,135.0002 L120.9998,132.0002 C120.9998,130.3462 122.3458,129.0002 123.9998,129.0002 C125.6538,129.0002 126.9998,130.3462 126.9998,132.0002 L126.9998,135.0002 Z M118.9998,128.0252 C118.1618,127.3912 117.1298,127.0002 115.9998,127.0002 C114.8698,127.0002 113.8378,127.3912 112.9998,128.0252 L112.9998,105.0002 L118.9998,105.0002 L118.9998,128.0252 Z M118.9998,135.0002 L112.9998,135.0002 L112.9998,132.0002 C112.9998,130.3462 114.3458,129.0002 115.9998,129.0002 C117.6538,129.0002 118.9998,130.3462 118.9998,132.0002 L118.9998,135.0002 Z M112.9998,56.0002 L112.9998,49.0002 L126.9998,49.0002 L126.9998,56.0002 C126.9998,59.8592 123.8588,63.0002 119.9998,63.0002 C116.1408,63.0002 112.9998,59.8592 112.9998,56.0002 L112.9998,56.0002 Z M110.9998,100.0002 C110.9998,101.6542 109.6538,103.0002 107.9998,103.0002 C106.3458,103.0002 104.9998,101.6542 104.9998,100.0002 L104.9998,97.0002 L110.9998,97.0002 L110.9998,100.0002 Z M128.9998,63.0592 L128.9998,63.0002 L127.9998,63.0002 L126.9998,63.0002 L125.6448,63.0002 C127.6878,61.3482 128.9998,58.8252 128.9998,56.0002 L128.9998,49.0002 L128.9998,48.0002 C128.9998,43.0372 124.9628,39.0002 119.9998,39.0002 C115.0368,39.0002 110.9998,43.0372 110.9998,48.0002 L110.9998,49.0002 L110.9998,56.0002 C110.9998,58.8252 112.3118,61.3482 114.3548,63.0002 L112.9998,63.0002 L111.9998,63.0002 L110.9998,63.0002 L110.9998,63.0592 C106.5068,63.5582 102.9998,67.3752 102.9998,72.0002 L102.9998,95.0002 L102.9998,97.0002 L102.9998,100.0002 C102.9998,102.7572 105.2428,105.0002 107.9998,105.0002 C109.1298,105.0002 110.1618,104.6092 110.9998,103.9752 L110.9998,105.0002 L110.9998,132.0002 L110.9998,137.0002 L118.9998,137.0002 L120.9998,137.0002 L128.9998,137.0002 L128.9998,132.0002 L128.9998,105.0002 L128.9998,103.9752 C129.8378,104.6092 130.8698,105.0002 131.9998,105.0002 C134.7568,105.0002 136.9998,102.7572 136.9998,100.0002 L136.9998,97.0002 L136.9998,95.0002 L136.9998,72.0002 C136.9998,67.3752 133.4928,63.5582 128.9998,63.0592 L128.9998,63.0592 Z" id="Fill-13" fill="#004684"></path>
                <polygon id="Fill-14" fill="#25CDCE" points="63.9998 120.0002 47.9998 120.0002 47.9998 96.0002 47.9998 64.0002 63.9998 64.0002"></polygon>
                <path d="M70.9998,95.0002 L64.9998,95.0002 L64.9998,65.0712 C68.3878,65.5582 70.9998,68.4792 70.9998,72.0002 L70.9998,95.0002 Z M70.9998,100.0002 C70.9998,101.6542 69.6538,103.0002 67.9998,103.0002 C66.3458,103.0002 64.9998,101.6542 64.9998,100.0002 L64.9998,97.0002 L70.9998,97.0002 L70.9998,100.0002 Z M62.9998,97.0002 L62.9998,100.0002 L62.9998,119.0002 L48.9998,119.0002 L48.9998,69.6372 C50.6498,71.6842 53.1718,73.0002 55.9998,73.0002 C58.8278,73.0002 61.3498,71.6842 62.9998,69.6372 L62.9998,95.0002 L62.9998,97.0002 Z M62.9998,128.0252 C62.1618,127.3912 61.1298,127.0002 59.9998,127.0002 C58.8698,127.0002 57.8378,127.3912 56.9998,128.0252 L56.9998,121.0002 L62.9998,121.0002 L62.9998,128.0252 Z M62.9998,135.0002 L56.9998,135.0002 L56.9998,132.0002 C56.9998,130.3462 58.3458,129.0002 59.9998,129.0002 C61.6538,129.0002 62.9998,130.3462 62.9998,132.0002 L62.9998,135.0002 Z M54.9998,128.0252 C54.1618,127.3912 53.1298,127.0002 51.9998,127.0002 C50.8698,127.0002 49.8378,127.3912 48.9998,128.0252 L48.9998,121.0002 L54.9998,121.0002 L54.9998,128.0252 Z M54.9998,135.0002 L48.9998,135.0002 L48.9998,132.0002 C48.9998,130.3462 50.3458,129.0002 51.9998,129.0002 C53.6538,129.0002 54.9998,130.3462 54.9998,132.0002 L54.9998,135.0002 Z M46.9998,95.0002 L40.9998,95.0002 L40.9998,72.0002 C40.9998,68.4792 43.6118,65.5582 46.9998,65.0712 L46.9998,95.0002 Z M46.9998,100.0002 C46.9998,101.6542 45.6538,103.0002 43.9998,103.0002 C42.3458,103.0002 40.9998,101.6542 40.9998,100.0002 L40.9998,97.0002 L46.9998,97.0002 L46.9998,100.0002 Z M48.9998,48.6182 L55.9998,45.1182 L62.9998,48.6182 L62.9998,56.0002 C62.9998,59.8592 59.8598,63.0002 55.9998,63.0002 C52.1398,63.0002 48.9998,59.8592 48.9998,56.0002 L48.9998,48.6182 Z M62.9198,65.0002 C62.4328,68.3862 59.5198,71.0002 55.9998,71.0002 C52.4798,71.0002 49.5668,68.3862 49.0798,65.0002 L62.9198,65.0002 Z M64.9998,63.0592 L64.9998,63.0002 L64.9998,48.0002 C64.9998,43.0372 60.9618,39.0002 55.9998,39.0002 C51.0378,39.0002 46.9998,43.0372 46.9998,48.0002 L46.9998,63.0592 C42.5068,63.5582 38.9998,67.3752 38.9998,72.0002 L38.9998,100.0002 C38.9998,102.7572 41.2428,105.0002 43.9998,105.0002 C45.1298,105.0002 46.1618,104.6092 46.9998,103.9752 L46.9998,137.0002 L64.9998,137.0002 L64.9998,103.9752 C65.8378,104.6092 66.8698,105.0002 67.9998,105.0002 C70.7568,105.0002 72.9998,102.7572 72.9998,100.0002 L72.9998,72.0002 C72.9998,67.3752 69.4928,63.5582 64.9998,63.0592 L64.9998,63.0592 Z" id="Fill-15" fill="#004684"></path>
                <path d="M84.782,64.0559 L84.782,63.1919 L85.886,62.1189 C88.543,59.5899 89.744,58.2449 89.76,56.6769 C89.76,55.6199 89.248,54.6439 87.695,54.6439 C86.751,54.6439 85.966,55.1239 85.486,55.5249 L85.038,54.5319 C85.758,53.9239 86.782,53.4759 87.983,53.4759 C90.223,53.4759 91.168,55.0129 91.168,56.5009 C91.168,58.4219 89.775,59.9739 87.583,62.0869 L86.751,62.8549 L86.751,62.8879 L91.425,62.8879 L91.425,64.0559 L84.782,64.0559 Z" id="Fill-16" fill="#004684"></path>
                <path d="M82.6619,115.4055 C82.6619,114.6045 82.6449,113.9485 82.5979,113.3085 L83.8299,113.3085 L83.8939,114.5565 L83.9419,114.5565 C84.3739,113.8205 85.0949,113.1325 86.3749,113.1325 C87.4319,113.1325 88.2309,113.7725 88.5679,114.6845 L88.5989,114.6845 C88.8399,114.2535 89.1439,113.9175 89.4649,113.6765 C89.9289,113.3245 90.4399,113.1325 91.1769,113.1325 C92.2009,113.1325 93.7219,113.8045 93.7219,116.4935 L93.7219,121.0555 L92.3459,121.0555 L92.3459,116.6705 C92.3459,115.1805 91.8019,114.2855 90.6649,114.2855 C89.8639,114.2855 89.2399,114.8775 88.9999,115.5655 C88.9359,115.7575 88.8879,116.0135 88.8879,116.2695 L88.8879,121.0555 L87.5119,121.0555 L87.5119,116.4135 C87.5119,115.1805 86.9679,114.2855 85.8939,114.2855 C85.0149,114.2855 84.3739,114.9895 84.1499,115.6935 C84.0699,115.9015 84.0379,116.1415 84.0379,116.3825 L84.0379,121.0555 L82.6619,121.0555 L82.6619,115.4055 Z" id="Fill-17" fill="#004684"></path>
                <polygon id="Fill-18" fill="#004684" points="80.9998 79.9998 78.9998 79.9998 78.9998 95.9998 80.9998 95.9998 80.9998 88.9998 83.9898 88.9998 83.9898 86.9998 80.9998 86.9998"></polygon>
                <polygon id="Fill-19" fill="#004684" points="94.9998 79.9998 94.9998 86.9998 92.2778 86.9998 92.2778 88.9998 94.9998 88.9998 94.9998 95.9998 96.9998 95.9998 96.9998 79.9998"></polygon>
                <polygon id="Fill-20" fill="#004684" points="86.278 89 89.99 89 89.99 87 86.278 87"></polygon>
            </g>
        </g>
    </g>
</svg>