<?xml version="1.0" encoding="UTF-8"?>
<svg width="176px" height="176px" viewBox="0 0 176 176" version="1.1" xmlns="http://www.w3.org/2000/svg" xmlns:xlink="http://www.w3.org/1999/xlink">
    <!-- Generator: Sketch 63.1 (92452) - https://sketch.com -->
    <title>Reco_Ilus_QuedateCasa</title>
    <desc>Created with Sketch.</desc>
    <g id="Recomendaciones" stroke="none" stroke-width="1" fill="none" fill-rule="evenodd">
        <g id="Recomendaciones-SinSintomas" transform="translate(-48.000000, -1035.000000)">
            <g id="Reco_Ilus_QuedateCasa" transform="translate(48.000000, 1035.000000)">
                <path d="M0,88 C0,39.399 39.399,0 88,0 C136.601,0 176,39.399 176,88 C176,136.601 136.601,176 88,176 C39.399,176 0,136.601 0,88" id="Fill-1" fill="#25CDCE"></path>
                <polygon id="Fill-3" fill="#FFFFFF" points="51 143 129 143 129 81 51 81"></polygon>
                <path d="M130,79 L122.414,79 L90.707,47.293 C90.316,46.902 89.684,46.902 89.293,47.293 L57.585,79 L50,79 L44.414,79 L90,33.414 L135.586,79 L130,79 Z M60.414,79 L90,49.414 L119.586,79 L60.414,79 Z M129,143 L99,143 L99,127 L81,127 L81,143 L51,143 L51,81 L58,81 L122,81 L129,81 L129,143 Z M138.707,79.293 L90.707,31.293 C90.316,30.902 89.684,30.902 89.293,31.293 L41.292,79.293 C41.006,79.579 40.92,80.009 41.076,80.383 C41.23,80.757 41.595,81 42,81 L49,81 L49,144 C49,144.553 49.447,145 50,145 L81,145 L99,145 L130,145 C130.553,145 131,144.553 131,144 L131,81 L138,81 C138.404,81 138.77,80.757 138.924,80.383 C139.079,80.009 138.993,79.579 138.707,79.293 L138.707,79.293 Z" id="Fill-5" fill="#004684"></path>
                <path d="M108,111 L113,111 L113,97 L108,97 L108,111 Z M92,111 L98,111 L98,97 L92,97 L92,111 Z M100,111 L106,111 L106,97 L100,97 L100,111 Z M114,95 L91,95 C90.447,95 90,95.447 90,96 L90,112 C90,112.553 90.447,113 91,113 L114,113 C114.553,113 115,112.553 115,112 L115,96 C115,95.447 114.553,95 114,95 L114,95 Z" id="Fill-6" fill="#004684"></path>
                <path d="M67,111 L74,111 L74,97 L67,97 L67,111 Z M75,95 L66,95 C65.447,95 65,95.447 65,96 L65,112 C65,112.553 65.447,113 66,113 L75,113 C75.552,113 76,112.553 76,112 L76,96 C76,95.447 75.552,95 75,95 L75,95 Z" id="Fill-7" fill="#004684"></path>
                <path d="M44.4136,79 L57.5856,79 L89.2926,47.293 C89.6836,46.902 90.3166,46.902 90.7066,47.293 L122.4136,79 L135.5856,79 L89.9996,33.414 L44.4136,79 Z" id="Fill-8" fill="#F35A5D"></path>
            </g>
        </g>
    </g>
</svg>