<?xml version="1.0" encoding="UTF-8"?>
<svg width="176px" height="176px" viewBox="0 0 176 176" version="1.1" xmlns="http://www.w3.org/2000/svg" xmlns:xlink="http://www.w3.org/1999/xlink">
    <!-- Generator: Sketch 63.1 (92452) - https://sketch.com -->
    <title>Reco_Ilus_LavaManos</title>
    <desc>Created with Sketch.</desc>
    <defs>
        <polygon id="path-1" points="0 176 176 176 176 0 0 0"></polygon>
    </defs>
    <g id="Recomendaciones" stroke="none" stroke-width="1" fill="none" fill-rule="evenodd">
        <g id="Recomendaciones-SinSintomas" transform="translate(-48.000000, -2963.000000)">
            <g id="Reco_Ilus_LavaManos" transform="translate(48.000000, 2963.000000)">
                <path d="M0,88 C0,39.399 39.399,0 88,0 C136.601,0 176,39.399 176,88 C176,136.601 136.601,176 88,176 C39.399,176 0,136.601 0,88" id="Fill-1" fill="#25CDCE"></path>
                <path d="M73,128 L113,128 C121.837,128 129,135.163 129,144 L49,144 L49,128 L57,128 C57,119.163 64.164,112 73,112 L89,112 C93.418,112 97,115.582 97,120 C97,124.418 93.418,128 89,128 L73,128" id="Fill-3" fill="#FFFFFF"></path>
                <path d="M104,63 L74,63 L74,57 L80,57 L98,57 L104,57 L104,63 Z M105,33 L120,33 L120,47 L105,47 C100.375,47 96.555,50.506 96.056,55 L82.021,55 C82.547,42.78 92.653,33 105,33 L105,33 Z M106,55 L98.08,55 C98.567,51.613 101.48,49 105,49 L122,49 L122,31 L105,31 C91.55,31 80.553,41.677 80.025,55 L72,55 L72,65 L106,65 L106,55 Z" id="Fill-5" fill="#004684"></path>
                <path d="M88.293,71.293 C87.954,71.631 80,79.682 80,88 C80,92.963 84.038,97 89,97 C93.963,97 98,92.963 98,88 C98,79.682 90.046,71.631 89.707,71.293 L89,70.586 L88.293,71.293 Z" id="Fill-7" fill="#004684"></path>
                <mask id="mask-2" fill="white">
                    <use xlink:href="#path-1"></use>
                </mask>
                <g id="Clip-10"></g>
                <path d="M82,127 L88,127 L88,121 L82,121 L82,127 Z M122,143 L122,135 L112,135 L112,143 L106,143 L106,136 L104,136 L104,143 L98,143 L98,136 L96,136 L96,143 L50,143 L50,129 L58,129 L58,128 C58,119.729 64.729,113 73,113 L89,113 C92.859,113 96,116.141 96,120 C96,123.519 93.387,126.432 90,126.92 L90,119 L80,119 L80,127 L74,127 L74,120 L72,120 L72,128 L73,128 L73,129 L80,129 L90,129 L113,129 C120.935,129 127.45,135.193 127.967,143 L122,143 Z M114,143 L120,143 L120,137 L114,137 L114,143 Z M93.467,109.467 C95.633,109.467 97.792,109.859 99.885,110.633 L100.591,110.894 L101.037,110.287 C103.044,107.557 106.127,105.991 109.495,105.991 C115.287,105.991 120,110.703 120,116.495 C120,121.096 117.055,125.12 112.671,126.509 L111.953,126.736 L110.883,127 L94.651,127 C96.692,125.349 98,122.824 98,120 C98,115.037 93.963,111 89,111 L86.137,111 C88.386,110.02 90.86,109.467 93.467,109.467 L93.467,109.467 Z M115.857,127.26 C119.615,125.051 122,121.008 122,116.495 C122,109.601 116.391,103.991 109.495,103.991 C105.791,103.991 102.253,105.669 99.886,108.514 C97.787,107.818 95.632,107.467 93.467,107.467 C89.219,107.467 85.282,108.779 82.005,111 L73,111 C63.962,111 56.549,118.09 56.029,127 L48,127 L48,145 L112,145 L122,145 L130,145 L130,144 C130,135.602 123.873,128.625 115.857,127.26 L115.857,127.26 Z" id="Fill-9" fill="#004684" mask="url(#mask-2)"></path>
                <path d="M125,97 C126.654,97 128,98.346 128,100 C128,101.654 126.654,103 125,103 C123.346,103 122,101.654 122,100 C122,98.346 123.346,97 125,97 M120,100 C120,102.757 122.243,105 125,105 C127.757,105 130,102.757 130,100 C130,97.243 127.757,95 125,95 C122.243,95 120,97.243 120,100" id="Fill-11" fill="#004684" mask="url(#mask-2)"></path>
                <path d="M133,119 C131.346,119 130,117.654 130,116 C130,114.346 131.346,113 133,113 C134.654,113 136,114.346 136,116 C136,117.654 134.654,119 133,119 M133,111 C130.243,111 128,113.243 128,116 C128,118.757 130.243,121 133,121 C135.757,121 138,118.757 138,116 C138,113.243 135.757,111 133,111" id="Fill-12" fill="#004684" mask="url(#mask-2)"></path>
            </g>
        </g>
    </g>
</svg>