<?xml version="1.0" encoding="UTF-8"?>
<svg width="176px" height="176px" viewBox="0 0 176 176" version="1.1" xmlns="http://www.w3.org/2000/svg" xmlns:xlink="http://www.w3.org/1999/xlink">
    <!-- Generator: Sketch 63.1 (92452) - https://sketch.com -->
    <title>Reco_Ilus_DistanciaCasa</title>
    <desc>Created with Sketch.</desc>
    <g id="Recomendaciones" stroke="none" stroke-width="1" fill="none" fill-rule="evenodd">
        <g id="Recomendaciones-SinSintomas" transform="translate(-46.000000, -5797.000000)">
            <g id="Reco_Ilus_DistanciaCasa" transform="translate(46.000000, 5797.000000)">
                <path d="M176,88 C176,136.601 136.601,176 88,176 C66.5802737,176 46.9479387,168.34716 31.688051,155.626536 L155.626536,31.688051 C168.34716,46.9479387 176,66.5802737 176,88 Z M88,-2.27373675e-13 C109.420197,-2.27373675e-13 129.052924,7.653176 144.312955,20.3743018 L20.3743018,144.312955 C7.653176,129.052924 0,109.420197 0,88 C0,39.399 39.399,-2.27373675e-13 88,-2.27373675e-13 Z" id="Combined-Shape" fill="#F35A5D"></path>
                <polygon id="Fill-3" fill="#FFFFFF" points="50 144 130 144 130 80 50 80"></polygon>
                <polygon id="Fill-5" fill="#25CDCE" points="90 48 122 80 138 80 90 32 42 80 58 80"></polygon>
                <path d="M62.1948,142.9863 L62.1948,122.8213 C57.7768,122.8213 54.1948,126.4033 54.1948,130.8213 L54.1948,142.9863 L62.1948,142.9863 Z" id="Fill-6" fill="#FFFFFF"></path>
                <path d="M86.1953,142.9863 L86.1953,130.8213 C86.1953,126.4033 82.6133,122.8213 78.1953,122.8213 L78.1953,142.9863 L86.1953,142.9863 Z" id="Fill-7" fill="#FFFFFF"></path>
                <path d="M70.1953,98.8623 L70.1953,98.8623 C65.7773,98.8623 62.1953,102.4443 62.1953,106.8623 L62.1953,114.8623 C62.1953,119.2813 65.7773,122.8623 70.1953,122.8623 C74.6133,122.8623 78.1953,119.2813 78.1953,114.8623 L78.1953,106.8623 C78.1953,102.4443 74.6133,98.8623 70.1953,98.8623" id="Fill-8" fill="#FFFFFF"></path>
                <path d="M110.1953,98.8623 L110.1953,98.8623 C105.7763,98.8623 102.1953,102.4443 102.1953,106.8623 L102.1953,114.8623 C102.1953,119.2813 105.7763,122.8623 110.1953,122.8623 C114.6133,122.8623 118.1953,119.2813 118.1953,114.8623 L118.1953,106.8623 C118.1953,102.4443 114.6133,98.8623 110.1953,98.8623" id="Fill-9" fill="#FFFFFF"></path>
                <polygon id="Fill-10" fill="#25CDCE" points="62.195 142.986 78.195 142.986 78.195 122.821 62.195 122.821"></polygon>
                <path d="M130,79 L122.414,79 L90.707,47.293 C90.316,46.902 89.684,46.902 89.293,47.293 L57.586,79 L50,79 L44.414,79 L90,33.414 L135.586,79 L130,79 Z M129,143 L127,143 L127,130.917 C127,126.293 123.493,122.476 119,121.977 L119,121.917 L115.645,121.917 C117.688,120.266 119,117.743 119,114.917 L119,106.917 C119,101.955 114.963,97.917 110,97.917 C105.037,97.917 101,101.955 101,106.917 L101,114.917 C101,117.743 102.312,120.266 104.355,121.917 L101,121.917 L101,121.977 C96.507,122.476 93,126.293 93,130.917 L93,143 L87,143 L87,130.917 C87,126.293 83.493,122.476 79,121.977 L79,121.917 L79,106.917 C79,101.955 74.962,97.917 70,97.917 C65.038,97.917 61,101.955 61,106.917 L61,121.977 C56.507,122.476 53,126.293 53,130.917 L53,143 L51,143 L51,81 L58,81 L122,81 L129,81 L129,143 Z M110,121.917 C106.141,121.917 103,118.777 103,114.917 L103,107.917 L117,107.917 L117,114.917 C117,118.777 113.859,121.917 110,121.917 L110,121.917 Z M85,143 L79,143 L79,123.988 C82.388,124.476 85,127.396 85,130.917 L85,143 Z M77,143 L63,143 L63,128.555 C64.65,130.602 67.172,131.917 70,131.917 C72.828,131.917 75.35,130.602 77,128.555 L77,143 Z M76.92,123.917 C76.433,127.304 73.52,129.917 70,129.917 C66.48,129.917 63.567,127.304 63.08,123.917 L76.92,123.917 Z M70,121.917 C66.14,121.917 63,118.777 63,114.917 L63,107.535 L70,104.035 L77,107.535 L77,114.917 C77,118.777 73.86,121.917 70,121.917 L70,121.917 Z M61,143 L55,143 L55,130.917 C55,127.396 57.612,124.476 61,123.988 L61,143 Z M138.707,79.293 L90.707,31.293 C90.316,30.902 89.684,30.902 89.293,31.293 L41.293,79.293 C41.007,79.579 40.921,80.009 41.076,80.383 C41.231,80.756 41.596,81 42,81 L49,81 L49,144 C49,144.553 49.448,145 50,145 L130,145 C130.553,145 131,144.553 131,144 L131,81 L138,81 C138.404,81 138.77,80.756 138.924,80.383 C139.079,80.009 138.993,79.579 138.707,79.293 L138.707,79.293 Z" id="Fill-11" fill="#004684"></path>
                <polygon id="Path" fill="#F35A5D" points="60.414 79 90 49.414 119.586 79"></polygon>
                <polygon id="Fill-12" fill="#004684" points="83 85 81 85 81 101 83 101 83 94 85.99 94 85.99 92 83 92"></polygon>
                <polygon id="Fill-13" fill="#004684" points="97 92.0005 94.278 92.0005 94.278 94.0005 97 94.0005 97 101.0005 99 101.0005 99 85.0005 97 85.0005"></polygon>
                <polygon id="Fill-14" fill="#004684" points="88.2779 94.0006 91.9899 94.0006 91.9899 92.0006 88.2779 92.0006"></polygon>
            </g>
        </g>
    </g>
</svg>